<svg id="my-svg" width="100%" xmlns="http://www.w3.org/2000/svg" xmlns:xlink="http://www.w3.org/1999/xlink" class="classDiagram" style="max-width: 1464.48px; background-color: white;" viewBox="0 0 1464.484375 826" role="graphics-document document" aria-roledescription="class"><style>#my-svg{font-family:"trebuchet ms",verdana,arial,sans-serif;font-size:16px;fill:#333;}@keyframes edge-animation-frame{from{stroke-dashoffset:0;}}@keyframes dash{to{stroke-dashoffset:0;}}#my-svg .edge-animation-slow{stroke-dasharray:9,5!important;stroke-dashoffset:900;animation:dash 50s linear infinite;stroke-linecap:round;}#my-svg .edge-animation-fast{stroke-dasharray:9,5!important;stroke-dashoffset:900;animation:dash 20s linear infinite;stroke-linecap:round;}#my-svg .error-icon{fill:#552222;}#my-svg .error-text{fill:#552222;stroke:#552222;}#my-svg .edge-thickness-normal{stroke-width:1px;}#my-svg .edge-thickness-thick{stroke-width:3.5px;}#my-svg .edge-pattern-solid{stroke-dasharray:0;}#my-svg .edge-thickness-invisible{stroke-width:0;fill:none;}#my-svg .edge-pattern-dashed{stroke-dasharray:3;}#my-svg .edge-pattern-dotted{stroke-dasharray:2;}#my-svg .marker{fill:#333333;stroke:#333333;}#my-svg .marker.cross{stroke:#333333;}#my-svg svg{font-family:"trebuchet ms",verdana,arial,sans-serif;font-size:16px;}#my-svg p{margin:0;}#my-svg g.classGroup text{fill:#9370DB;stroke:none;font-family:"trebuchet ms",verdana,arial,sans-serif;font-size:10px;}#my-svg g.classGroup text .title{font-weight:bolder;}#my-svg .cluster-label text{fill:#333;}#my-svg .cluster-label span{color:#333;}#my-svg .cluster-label span p{background-color:transparent;}#my-svg .cluster rect{fill:#ffffde;stroke:#aaaa33;stroke-width:1px;}#my-svg .cluster text{fill:#333;}#my-svg .cluster span{color:#333;}#my-svg .nodeLabel,#my-svg .edgeLabel{color:#131300;}#my-svg .noteLabel .nodeLabel,#my-svg .noteLabel .edgeLabel{color:black;}#my-svg .edgeLabel .label rect{fill:#ECECFF;}#my-svg .label text{fill:#131300;}#my-svg .labelBkg{background:#ECECFF;}#my-svg .edgeLabel .label span{background:#ECECFF;}#my-svg .classTitle{font-weight:bolder;}#my-svg .node rect,#my-svg .node circle,#my-svg .node ellipse,#my-svg .node polygon,#my-svg .node path{fill:#ECECFF;stroke:#9370DB;stroke-width:1;}#my-svg .divider{stroke:#9370DB;stroke-width:1;}#my-svg g.clickable{cursor:pointer;}#my-svg g.classGroup rect{fill:#ECECFF;stroke:#9370DB;}#my-svg g.classGroup line{stroke:#9370DB;stroke-width:1;}#my-svg .classLabel .box{stroke:none;stroke-width:0;fill:#ECECFF;opacity:0.5;}#my-svg .classLabel .label{fill:#9370DB;font-size:10px;}#my-svg .relation{stroke:#333333;stroke-width:1;fill:none;}#my-svg .dashed-line{stroke-dasharray:3;}#my-svg .dotted-line{stroke-dasharray:1 2;}#my-svg [id$="-compositionStart"],#my-svg .composition{fill:#333333!important;stroke:#333333!important;stroke-width:1;}#my-svg [id$="-compositionEnd"],#my-svg .composition{fill:#333333!important;stroke:#333333!important;stroke-width:1;}#my-svg [id$="-dependencyStart"],#my-svg .dependency{fill:#333333!important;stroke:#333333!important;stroke-width:1;}#my-svg [id$="-dependencyEnd"],#my-svg .dependency{fill:#333333!important;stroke:#333333!important;stroke-width:1;}#my-svg [id$="-extensionStart"],#my-svg .extension{fill:transparent!important;stroke:#333333!important;stroke-width:1;}#my-svg [id$="-extensionEnd"],#my-svg .extension{fill:transparent!important;stroke:#333333!important;stroke-width:1;}#my-svg [id$="-aggregationStart"],#my-svg .aggregation{fill:transparent!important;stroke:#333333!important;stroke-width:1;}#my-svg [id$="-aggregationEnd"],#my-svg .aggregation{fill:transparent!important;stroke:#333333!important;stroke-width:1;}#my-svg [id$="-lollipopStart"],#my-svg .lollipop{fill:#ECECFF!important;stroke:#333333!important;stroke-width:1;}#my-svg [id$="-lollipopEnd"],#my-svg .lollipop{fill:#ECECFF!important;stroke:#333333!important;stroke-width:1;}#my-svg .edgeTerminals{font-size:11px;line-height:initial;}#my-svg .classTitleText{text-anchor:middle;font-size:18px;fill:#333;}#my-svg .edgeLabel[data-look="neo"]{background-color:rgba(232,232,232, 0.8);text-align:center;}#my-svg .edgeLabel[data-look="neo"] p{background-color:rgba(232,232,232, 0.8);}#my-svg .edgeLabel[data-look="neo"] rect{opacity:0.5;background-color:rgba(232,232,232, 0.8);fill:rgba(232,232,232, 0.8);}#my-svg .label-icon{display:inline-block;height:1em;overflow:visible;vertical-align:-0.125em;}#my-svg .node .label-icon path{fill:currentColor;stroke:revert;stroke-width:revert;}#my-svg .node .neo-node{stroke:#9370DB;}#my-svg [data-look="neo"].node rect,#my-svg [data-look="neo"].cluster rect,#my-svg [data-look="neo"].node polygon{stroke:#9370DB;filter:drop-shadow(1px 2px 2px rgba(185, 185, 185, 1));}#my-svg [data-look="neo"].node path{stroke:#9370DB;stroke-width:1px;}#my-svg [data-look="neo"].node .outer-path{filter:drop-shadow(1px 2px 2px rgba(185, 185, 185, 1));}#my-svg [data-look="neo"].node .neo-line path{stroke:#9370DB;filter:none;}#my-svg [data-look="neo"].node circle{stroke:#9370DB;filter:drop-shadow(1px 2px 2px rgba(185, 185, 185, 1));}#my-svg [data-look="neo"].node circle .state-start{fill:#000000;}#my-svg [data-look="neo"].icon-shape .icon{fill:#9370DB;filter:drop-shadow(1px 2px 2px rgba(185, 185, 185, 1));}#my-svg [data-look="neo"].icon-shape .icon-neo path{stroke:#9370DB;filter:drop-shadow(1px 2px 2px rgba(185, 185, 185, 1));}#my-svg :root{--mermaid-font-family:"trebuchet ms",verdana,arial,sans-serif;}</style><g><defs><marker id="my-svg_class-aggregationStart" class="marker aggregation class" refX="18" refY="7" markerWidth="190" markerHeight="240" orient="auto"><path d="M 18,7 L9,13 L1,7 L9,1 Z"/></marker></defs><defs><marker id="my-svg_class-aggregationEnd" class="marker aggregation class" refX="1" refY="7" markerWidth="20" markerHeight="28" orient="auto"><path d="M 18,7 L9,13 L1,7 L9,1 Z"/></marker></defs><defs><marker id="my-svg_class-aggregationStart-margin" class="marker aggregation class" refX="15" refY="7" markerWidth="190" markerHeight="240" orient="auto" markerUnits="userSpaceOnUse"><path d="M 18,7 L9,13 L1,7 L9,1 Z" style="stroke-width: 2;"/></marker></defs><defs><marker id="my-svg_class-aggregationEnd-margin" class="marker aggregation class" refX="1" refY="7" markerWidth="20" markerHeight="28" orient="auto" markerUnits="userSpaceOnUse"><path d="M 18,7 L9,13 L1,7 L9,1 Z" style="stroke-width: 2;"/></marker></defs><defs><marker id="my-svg_class-extensionStart" class="marker extension class" refX="18" refY="7" markerWidth="190" markerHeight="240" orient="auto" markerUnits="userSpaceOnUse"><path d="M 1,7 L18,13 V 1 Z"/></marker></defs><defs><marker id="my-svg_class-extensionEnd" class="marker extension class" refX="1" refY="7" markerWidth="20" markerHeight="28" orient="auto"><path d="M 1,1 V 13 L18,7 Z"/></marker></defs><marker id="my-svg_class-extensionStart-margin" class="marker extension class" refX="18" refY="7" markerWidth="20" markerHeight="28" orient="auto" markerUnits="userSpaceOnUse" viewBox="0 0 20 14"><polygon points="10,7 18,13 18,1" style="stroke-width: 2; stroke-dasharray: 0;"/></marker><defs><marker id="my-svg_class-extensionEnd-margin" class="marker extension class" refX="9" refY="7" markerWidth="20" markerHeight="28" orient="auto" markerUnits="userSpaceOnUse" viewBox="0 0 20 14"><polygon points="10,1 10,13 18,7" style="stroke-width: 2; stroke-dasharray: 0;"/></marker></defs><defs><marker id="my-svg_class-compositionStart" class="marker composition class" refX="18" refY="7" markerWidth="190" markerHeight="240" orient="auto"><path d="M 18,7 L9,13 L1,7 L9,1 Z"/></marker></defs><defs><marker id="my-svg_class-compositionEnd" class="marker composition class" refX="1" refY="7" markerWidth="20" markerHeight="28" orient="auto"><path d="M 18,7 L9,13 L1,7 L9,1 Z"/></marker></defs><defs><marker id="my-svg_class-compositionStart-margin" class="marker composition class" refX="15" refY="7" markerWidth="190" markerHeight="240" orient="auto" markerUnits="userSpaceOnUse"><path viewBox="0 0 15 15" d="M 18,7 L9,13 L1,7 L9,1 Z" style="stroke-width: 0;"/></marker></defs><defs><marker id="my-svg_class-compositionEnd-margin" class="marker composition class" refX="3.5" refY="7" markerWidth="20" markerHeight="28" orient="auto" markerUnits="userSpaceOnUse"><path d="M 18,7 L9,13 L1,7 L9,1 Z" style="stroke-width: 0;"/></marker></defs><defs><marker id="my-svg_class-dependencyStart" class="marker dependency class" refX="6" refY="7" markerWidth="190" markerHeight="240" orient="auto"><path d="M 5,7 L9,13 L1,7 L9,1 Z"/></marker></defs><defs><marker id="my-svg_class-dependencyEnd" class="marker dependency class" refX="13" refY="7" markerWidth="20" markerHeight="28" orient="auto"><path d="M 18,7 L9,13 L14,7 L9,1 Z"/></marker></defs><defs><marker id="my-svg_class-dependencyStart-margin" class="marker dependency class" refX="4" refY="7" markerWidth="190" markerHeight="240" orient="auto" markerUnits="userSpaceOnUse"><path d="M 5,7 L9,13 L1,7 L9,1 Z" style="stroke-width: 0;"/></marker></defs><defs><marker id="my-svg_class-dependencyEnd-margin" class="marker dependency class" refX="16" refY="7" markerWidth="20" markerHeight="28" orient="auto" markerUnits="userSpaceOnUse"><path d="M 18,7 L9,13 L14,7 L9,1 Z" style="stroke-width: 0;"/></marker></defs><defs><marker id="my-svg_class-lollipopStart" class="marker lollipop class" refX="13" refY="7" markerWidth="190" markerHeight="240" orient="auto"><circle fill="transparent" cx="7" cy="7" r="6"/></marker></defs><defs><marker id="my-svg_class-lollipopEnd" class="marker lollipop class" refX="1" refY="7" markerWidth="190" markerHeight="240" orient="auto"><circle fill="transparent" cx="7" cy="7" r="6"/></marker></defs><defs><marker id="my-svg_class-lollipopStart-margin" class="marker lollipop class" refX="13" refY="7" markerWidth="190" markerHeight="240" orient="auto" markerUnits="userSpaceOnUse"><circle fill="transparent" cx="7" cy="7" r="6" stroke-width="2"/></marker></defs><defs><marker id="my-svg_class-lollipopEnd-margin" class="marker lollipop class" refX="1" refY="7" markerWidth="190" markerHeight="240" orient="auto" markerUnits="userSpaceOnUse"><circle fill="transparent" cx="7" cy="7" r="6" stroke-width="2"/></marker></defs><g class="root"><g class="clusters"/><g class="edgePaths"><path d="M986.799,237.781L1005.492,215.484C1024.186,193.187,1061.573,148.594,1095.593,126.297C1129.612,104,1160.263,104,1175.589,104L1190.914,104" id="my-svg-id_VirtualQueue_QueueEntry_1" class="edge-thickness-normal edge-pattern-solid relation" style=";;;" data-edge="true" data-et="edge" data-id="id_VirtualQueue_QueueEntry_1" data-points="W3sieCI6OTc1LjcxNTg3NjgwNzg1MTMsInkiOjI1MX0seyJ4IjoxMDk4Ljk2MDkzNzUsInkiOjEwNH0seyJ4IjoxMTkwLjkxNDA2MjUsInkiOjEwNH1d" data-look="classic" marker-start="url(#my-svg_class-compositionStart)"/><path d="M1028.561,373.99L1040.294,369.325C1052.028,364.66,1075.494,355.33,1101.633,350.665C1127.771,346,1156.581,346,1170.986,346L1185.391,346" id="my-svg-id_VirtualQueue_AdmissionToken_2" class="edge-thickness-normal edge-pattern-solid relation" style=";;;" data-edge="true" data-et="edge" data-id="id_VirtualQueue_AdmissionToken_2" data-points="W3sieCI6MTAxMi41MzEyNSwieSI6MzgwLjM2Mjg3NTU4ODgxMjg3fSx7IngiOjEwOTguOTYwOTM3NSwieSI6MzQ2fSx7IngiOjExODUuMzkwNjI1LCJ5IjozNDZ9XQ==" data-look="classic" marker-start="url(#my-svg_class-compositionStart)"/><path d="M1012.531,553.637L1026.936,559.364C1041.341,565.091,1070.151,576.546,1108.331,582.273C1146.512,588,1194.063,588,1217.838,588L1241.613,588" id="my-svg-id_VirtualQueue_QueueStatus_3" class="edge-thickness-normal edge-pattern-solid relation" style=";;;" data-edge="true" data-et="edge" data-id="id_VirtualQueue_QueueStatus_3" data-points="W3sieCI6MTAxMi41MzEyNSwieSI6NTUzLjYzNzEyNDQxMTE4NzJ9LHsieCI6MTA5OC45NjA5Mzc1LCJ5Ijo1ODh9LHsieCI6MTI0Ny42MTMyODEyNSwieSI6NTg4fV0=" data-look="classic" marker-end="url(#my-svg_class-dependencyEnd)"/><path d="M1007.364,683L1022.63,698.5C1037.896,714,1068.428,745,1114.147,760.5C1159.865,776,1220.768,776,1251.22,776L1281.672,776" id="my-svg-id_VirtualQueue_Event_4" class="edge-thickness-normal edge-pattern-solid relation" style=";;;" data-edge="true" data-et="edge" data-id="id_VirtualQueue_Event_4" data-points="W3sieCI6MTAwNy4zNjM1MDg3OTg1NDM2LCJ5Ijo2ODN9LHsieCI6MTA5OC45NjA5Mzc1LCJ5Ijo3NzZ9LHsieCI6MTI4Ny42NzE4NzUsInkiOjc3Nn1d" data-look="classic" marker-end="url(#my-svg_class-dependencyEnd)"/><path d="M377.977,467L394.538,467C411.099,467,444.221,467,476.344,467C508.466,467,539.589,467,555.15,467L570.711,467" id="my-svg-id_QueueRepository_VirtualQueue_5" class="edge-thickness-normal edge-pattern-dashed relation" style=";;;" data-edge="true" data-et="edge" data-id="id_QueueRepository_VirtualQueue_5" data-points="W3sieCI6Mzc3Ljk3NjU2MjUsInkiOjQ2N30seyJ4Ijo0NzcuMzQzNzUsInkiOjQ2N30seyJ4Ijo1NzYuNzEwOTM3NSwieSI6NDY3fV0=" data-look="classic" marker-end="url(#my-svg_class-dependencyEnd)"/></g><g class="edgeLabels"><g class="edgeLabel" transform="translate(1098.9609375, 104)"><g class="label" data-id="id_VirtualQueue_QueueEntry_1" transform="translate(-61.4296875, -12)"><foreignObject width="122.859375" height="24"><div xmlns="http://www.w3.org/1999/xhtml" class="labelBkg" style="display: table-cell; white-space: nowrap; line-height: 1.5; max-width: 200px; text-align: center;"><span class="edgeLabel"><p>waitingEntries ►</p></span></div></foreignObject></g></g><g class="edgeLabel" transform="translate(1098.9609375, 346)"><g class="label" data-id="id_VirtualQueue_AdmissionToken_2" transform="translate(-54.4609375, -12)"><foreignObject width="108.921875" height="24"><div xmlns="http://www.w3.org/1999/xhtml" class="labelBkg" style="display: table-cell; white-space: nowrap; line-height: 1.5; max-width: 200px; text-align: center;"><span class="edgeLabel"><p>admittedSet ►</p></span></div></foreignObject></g></g><g class="edgeLabel" transform="translate(1098.9609375, 588)"><g class="label" data-id="id_VirtualQueue_QueueStatus_3" transform="translate(-21.3984375, -12)"><foreignObject width="42.796875" height="24"><div xmlns="http://www.w3.org/1999/xhtml" class="labelBkg" style="display: table-cell; white-space: nowrap; line-height: 1.5; max-width: 200px; text-align: center;"><span class="edgeLabel"><p>status</p></span></div></foreignObject></g></g><g class="edgeLabel" transform="translate(1098.9609375, 776)"><g class="label" data-id="id_VirtualQueue_Event_4" transform="translate(-20.1875, -12)"><foreignObject width="40.375" height="24"><div xmlns="http://www.w3.org/1999/xhtml" class="labelBkg" style="display: table-cell; white-space: nowrap; line-height: 1.5; max-width: 200px; text-align: center;"><span class="edgeLabel"><p>event</p></span></div></foreignObject></g></g><g class="edgeLabel" transform="translate(477.34375, 467)"><g class="label" data-id="id_QueueRepository_VirtualQueue_5" transform="translate(-74.3671875, -12)"><foreignObject width="148.734375" height="24"><div xmlns="http://www.w3.org/1999/xhtml" class="labelBkg" style="display: table-cell; white-space: nowrap; line-height: 1.5; max-width: 200px; text-align: center;"><span class="edgeLabel"><p>manages persistence</p></span></div></foreignObject></g></g><g class="edgeTerminals" transform="translate(998.4537835221319, 247.22672158259536)"><g class="inner" transform="translate(-2.890625, -8.25)"><foreignObject width="5.78125" height="16.5" style="width: 9px; height: 12px;"><div xmlns="http://www.w3.org/1999/xhtml" style="display: table-cell; white-space: nowrap; line-height: 1.5;"><span class="edgeLabel"><p>1</p></span></div></foreignObject></g></g><g class="edgeTerminals" transform="translate(1034.3349064625575, 387.83619547032686)"><g class="inner" transform="translate(-2.890625, -8.25)"><foreignObject width="5.78125" height="16.5" style="width: 9px; height: 12px;"><div xmlns="http://www.w3.org/1999/xhtml" style="display: table-cell; white-space: nowrap; line-height: 1.5;"><span class="edgeLabel"><p>1</p></span></div></foreignObject></g></g><g class="edgeTerminals" transform="translate(1008.9566226594064, 705.9937394144827)"><g class="inner" transform="translate(-2.890625, -8.25)"><foreignObject width="5.78125" height="16.5" style="width: 9px; height: 12px;"><div xmlns="http://www.w3.org/1999/xhtml" style="display: table-cell; white-space: nowrap; line-height: 1.5;"><span class="edgeLabel"><p>1</p></span></div></foreignObject></g></g><g class="edgeTerminals" transform="translate(1168.41406125, 84)"><g class="inner" transform="translate(-8.9453125, -8.25)"/><foreignObject width="17.890625" height="16.5" style="width: 36px; height: 12px;"><div xmlns="http://www.w3.org/1999/xhtml" style="display: table-cell; white-space: nowrap; line-height: 1.5;"><span class="edgeLabel"><p>0..*</p></span></div></foreignObject></g><g class="edgeTerminals" transform="translate(1162.8906275, 326)"><g class="inner" transform="translate(-8.9453125, -8.25)"/><foreignObject width="17.890625" height="16.5" style="width: 36px; height: 12px;"><div xmlns="http://www.w3.org/1999/xhtml" style="display: table-cell; white-space: nowrap; line-height: 1.5;"><span class="edgeLabel"><p>0..*</p></span></div></foreignObject></g><g class="edgeTerminals" transform="translate(1265.1718775, 756)"><g class="inner" transform="translate(-2.890625, -8.25)"/><foreignObject width="5.78125" height="16.5" style="width: 9px; height: 12px;"><div xmlns="http://www.w3.org/1999/xhtml" style="display: table-cell; white-space: nowrap; line-height: 1.5;"><span class="edgeLabel"><p>1</p></span></div></foreignObject></g></g><g class="nodes"><g class="node default" id="my-svg-classId-VirtualQueue-0" data-look="classic" transform="translate(794.62109375, 467)"><g class="basic label-container outer-path"><path d="M-217.91015625 -216 L217.91015625 -216 L217.91015625 216 L-217.91015625 216" stroke="none" stroke-width="0" fill="#ECECFF" style=""/><path d="M-217.91015625 -216 C-94.65798271599122 -216, 28.59419081801755 -216, 217.91015625 -216 M-217.91015625 -216 C-69.82533419737439 -216, 78.25948785525122 -216, 217.91015625 -216 M217.91015625 -216 C217.91015625 -54.58156676525937, 217.91015625 106.83686646948127, 217.91015625 216 M217.91015625 -216 C217.91015625 -111.95202280497925, 217.91015625 -7.9040456099585015, 217.91015625 216 M217.91015625 216 C123.38258565118049 216, 28.855015052360983 216, -217.91015625 216 M217.91015625 216 C47.009397437496744 216, -123.89136137500651 216, -217.91015625 216 M-217.91015625 216 C-217.91015625 86.71787962870664, -217.91015625 -42.56424074258672, -217.91015625 -216 M-217.91015625 216 C-217.91015625 95.75485976380091, -217.91015625 -24.490280472398183, -217.91015625 -216" stroke="#9370DB" stroke-width="1.3" fill="none" stroke-dasharray="0 0" style=""/></g><g class="annotation-group text" transform="translate(-62.8671875, -192)"><g class="label" style="" transform="translate(0,-12)"><foreignObject width="125.734375" height="24"><div xmlns="http://www.w3.org/1999/xhtml" style="display: table-cell; white-space: nowrap; line-height: 1.5; max-width: 168px; text-align: center;"><span class="nodeLabel markdown-node-label" style=""><p>«Aggregate Root»</p></span></div></foreignObject></g></g><g class="label-group text" transform="translate(-49.4765625, -168)"><g class="label" style="font-weight: bolder" transform="translate(0,-12)"><foreignObject width="98.953125" height="24"><div xmlns="http://www.w3.org/1999/xhtml" style="display: table-cell; white-space: nowrap; line-height: 1.5; max-width: 137px; text-align: center;"><span class="nodeLabel markdown-node-label" style=""><p>VirtualQueue</p></span></div></foreignObject></g></g><g class="members-group text" transform="translate(-205.91015625, -120)"><g class="label" style="" transform="translate(0,-12)"><foreignObject width="127.03125" height="24"><div xmlns="http://www.w3.org/1999/xhtml" style="display: table-cell; white-space: nowrap; line-height: 1.5; max-width: 172px; text-align: center;"><span class="nodeLabel markdown-node-label" style=""><p>-QueueId queueId</p></span></div></foreignObject></g><g class="label" style="" transform="translate(0,12)"><foreignObject width="118.03125" height="24"><div xmlns="http://www.w3.org/1999/xhtml" style="display: table-cell; white-space: nowrap; line-height: 1.5; max-width: 164px; text-align: center;"><span class="nodeLabel markdown-node-label" style=""><p>-EventId eventId</p></span></div></foreignObject></g><g class="label" style="" transform="translate(0,36)"><foreignObject width="143.25" height="24"><div xmlns="http://www.w3.org/1999/xhtml" style="display: table-cell; white-space: nowrap; line-height: 1.5; max-width: 182px; text-align: center;"><span class="nodeLabel markdown-node-label" style=""><p>-QueueStatus status</p></span></div></foreignObject></g><g class="label" style="" transform="translate(0,60)"><foreignObject width="131.390625" height="24"><div xmlns="http://www.w3.org/1999/xhtml" style="display: table-cell; white-space: nowrap; line-height: 1.5; max-width: 175px; text-align: center;"><span class="nodeLabel markdown-node-label" style=""><p>-int loadThreshold</p></span></div></foreignObject></g><g class="label" style="" transform="translate(0,84)"><foreignObject width="217.375" height="24"><div xmlns="http://www.w3.org/1999/xhtml" style="display: table-cell; white-space: nowrap; line-height: 1.5; max-width: 257px; text-align: center;"><span class="nodeLabel markdown-node-label" style=""><p>-int maxConcurrentAdmissions</p></span></div></foreignObject></g><g class="label" style="" transform="translate(0,108)"><foreignObject width="91.921875" height="24"><div xmlns="http://www.w3.org/1999/xhtml" style="display: table-cell; white-space: nowrap; line-height: 1.5; max-width: 141px; text-align: center;"><span class="nodeLabel markdown-node-label" style=""><p>-long version</p></span></div></foreignObject></g></g><g class="methods-group text" transform="translate(-205.91015625, 48)"><g class="label" style="" transform="translate(0,-12)"><foreignObject width="124.109375" height="24"><div xmlns="http://www.w3.org/1999/xhtml" style="display: table-cell; white-space: nowrap; line-height: 1.5; max-width: 167px; text-align: center;"><span class="nodeLabel markdown-node-label" style=""><p>+activate() : void</p></span></div></foreignObject></g><g class="label" style="" transform="translate(0,12)"><foreignObject width="295.15625" height="24"><div xmlns="http://www.w3.org/1999/xhtml" style="display: table-cell; white-space: nowrap; line-height: 1.5; max-width: 324px; text-align: center;"><span class="nodeLabel markdown-node-label" style=""><p>+enqueue(visitor: BuyerReference) : void</p></span></div></foreignObject></g><g class="label" style="" transform="translate(0,36)"><foreignObject width="265.734375" height="24"><div xmlns="http://www.w3.org/1999/xhtml" style="display: table-cell; white-space: nowrap; line-height: 1.5; max-width: 339px; text-align: center;"><span class="nodeLabel markdown-node-label" style=""><p>+admitNext() : List&lt;BuyerReference&gt;</p></span></div></foreignObject></g><g class="label" style="" transform="translate(0,60)"><foreignObject width="348.953125" height="24"><div xmlns="http://www.w3.org/1999/xhtml" style="display: table-cell; white-space: nowrap; line-height: 1.5; max-width: 379px; text-align: center;"><span class="nodeLabel markdown-node-label" style=""><p>+revokeAdmission(buyer: BuyerReference) : void</p></span></div></foreignObject></g><g class="label" style="" transform="translate(0,84)"><foreignObject width="338.1875" height="24"><div xmlns="http://www.w3.org/1999/xhtml" style="display: table-cell; white-space: nowrap; line-height: 1.5; max-width: 364px; text-align: center;"><span class="nodeLabel markdown-node-label" style=""><p>+isAdmitted(visitor: BuyerReference) : boolean</p></span></div></foreignObject></g><g class="label" style="" transform="translate(0,108)"><foreignObject width="158.625" height="24"><div xmlns="http://www.w3.org/1999/xhtml" style="display: table-cell; white-space: nowrap; line-height: 1.5; max-width: 203px; text-align: center;"><span class="nodeLabel markdown-node-label" style=""><p>+expireTokens() : void</p></span></div></foreignObject></g><g class="label" style="" transform="translate(0,132)"><foreignObject width="149.390625" height="24"><div xmlns="http://www.w3.org/1999/xhtml" style="display: table-cell; white-space: nowrap; line-height: 1.5; max-width: 191px; text-align: center;"><span class="nodeLabel markdown-node-label" style=""><p>+getOpenSlots() : int</p></span></div></foreignObject></g></g><g class="divider" style=""><path d="M-217.91015625 -144 C-44.31363250088282 -143.99960167867636, 129.28289124823436 -143.99920335735268, 217.91015625 -143.999 M-217.91015625 -144 C-90.73014419151234 -143.99970818245868, 36.449867866975325 -143.99941636491732, 217.91015625 -143.999" stroke="#9370DB" stroke-width="1.3" fill="none" stroke-dasharray="0 0" style=""/></g><g class="divider" style=""><path d="M-217.91015625 24 C-117.65643209302873 24.000230034537818, -17.402707936057453 24.000460069075633, 217.91015625 24.001 M-217.91015625 24 C-86.94137035523002 24.000300510972387, 44.02741553953996 24.00060102194477, 217.91015625 24.001" stroke="#9370DB" stroke-width="1.3" fill="none" stroke-dasharray="0 0" style=""/></g></g><g class="node default" id="my-svg-classId-QueueEntry-1" data-look="classic" transform="translate(1320.9375, 104)"><g class="basic label-container outer-path"><path d="M-130.0234375 -96 L130.0234375 -96 L130.0234375 96 L-130.0234375 96" stroke="none" stroke-width="0" fill="#ECECFF" style=""/><path d="M-130.0234375 -96 C-42.06233456813602 -96, 45.89876836372795 -96, 130.0234375 -96 M-130.0234375 -96 C-27.284466843444065 -96, 75.45450381311187 -96, 130.0234375 -96 M130.0234375 -96 C130.0234375 -38.94643280640441, 130.0234375 18.10713438719118, 130.0234375 96 M130.0234375 -96 C130.0234375 -44.55034340296179, 130.0234375 6.899313194076413, 130.0234375 96 M130.0234375 96 C28.649382194218646 96, -72.72467311156271 96, -130.0234375 96 M130.0234375 96 C65.25005494290963 96, 0.4766723858192563 96, -130.0234375 96 M-130.0234375 96 C-130.0234375 24.102932479980055, -130.0234375 -47.79413504003989, -130.0234375 -96 M-130.0234375 96 C-130.0234375 22.299824379597595, -130.0234375 -51.40035124080481, -130.0234375 -96" stroke="#9370DB" stroke-width="1.3" fill="none" stroke-dasharray="0 0" style=""/></g><g class="annotation-group text" transform="translate(-29.6171875, -72)"><g class="label" style="" transform="translate(0,-12)"><foreignObject width="59.234375" height="24"><div xmlns="http://www.w3.org/1999/xhtml" style="display: table-cell; white-space: nowrap; line-height: 1.5; max-width: 105px; text-align: center;"><span class="nodeLabel markdown-node-label" style=""><p>«Entity»</p></span></div></foreignObject></g></g><g class="label-group text" transform="translate(-44.453125, -48)"><g class="label" style="font-weight: bolder" transform="translate(0,-12)"><foreignObject width="88.90625" height="24"><div xmlns="http://www.w3.org/1999/xhtml" style="display: table-cell; white-space: nowrap; line-height: 1.5; max-width: 128px; text-align: center;"><span class="nodeLabel markdown-node-label" style=""><p>QueueEntry</p></span></div></foreignObject></g></g><g class="members-group text" transform="translate(-118.0234375, 0)"><g class="label" style="" transform="translate(0,-12)"><foreignObject width="191.59375" height="24"><div xmlns="http://www.w3.org/1999/xhtml" style="display: table-cell; white-space: nowrap; line-height: 1.5; max-width: 235px; text-align: center;"><span class="nodeLabel markdown-node-label" style=""><p>-BuyerReference visitorRef</p></span></div></foreignObject></g><g class="label" style="" transform="translate(0,12)"><foreignObject width="121.390625" height="24"><div xmlns="http://www.w3.org/1999/xhtml" style="display: table-cell; white-space: nowrap; line-height: 1.5; max-width: 165px; text-align: center;"><span class="nodeLabel markdown-node-label" style=""><p>-Instant joinedAt</p></span></div></foreignObject></g><g class="label" style="" transform="translate(0,36)"><foreignObject width="87.125" height="24"><div xmlns="http://www.w3.org/1999/xhtml" style="display: table-cell; white-space: nowrap; line-height: 1.5; max-width: 134px; text-align: center;"><span class="nodeLabel markdown-node-label" style=""><p>-int position</p></span></div></foreignObject></g></g><g class="methods-group text" transform="translate(-118.0234375, 96)"/><g class="divider" style=""><path d="M-130.0234375 -24 C-38.666869817762134 -23.99964869192263, 52.68969786447573 -23.99929738384526, 130.0234375 -23.999 M-130.0234375 -24 C-42.122060434566976 -23.999661978721853, 45.77931663086605 -23.999323957443707, 130.0234375 -23.999" stroke="#9370DB" stroke-width="1.3" fill="none" stroke-dasharray="0 0" style=""/></g><g class="divider" style=""><path d="M-130.0234375 72 C-69.67486232196009 72.00023206806534, -9.326287143920183 72.00046413613067, 130.0234375 72.001 M-130.0234375 72 C-49.84856476912647 72.00030830931051, 30.326307961747062 72.00061661862102, 130.0234375 72.001" stroke="#9370DB" stroke-width="1.3" fill="none" stroke-dasharray="0 0" style=""/></g></g><g class="node default" id="my-svg-classId-AdmissionToken-2" data-look="classic" transform="translate(1320.9375, 346)"><g class="basic label-container outer-path"><path d="M-135.546875 -96 L135.546875 -96 L135.546875 96 L-135.546875 96" stroke="none" stroke-width="0" fill="#ECECFF" style=""/><path d="M-135.546875 -96 C-36.37404458368502 -96, 62.79878583262996 -96, 135.546875 -96 M-135.546875 -96 C-56.93804300672954 -96, 21.670788986540913 -96, 135.546875 -96 M135.546875 -96 C135.546875 -41.08979112234144, 135.546875 13.820417755317123, 135.546875 96 M135.546875 -96 C135.546875 -54.75010127036341, 135.546875 -13.500202540726818, 135.546875 96 M135.546875 96 C47.028814337847535 96, -41.48924632430493 96, -135.546875 96 M135.546875 96 C32.0904027560389 96, -71.3660694879222 96, -135.546875 96 M-135.546875 96 C-135.546875 32.65872676737994, -135.546875 -30.682546465240122, -135.546875 -96 M-135.546875 96 C-135.546875 48.04875112144471, -135.546875 0.09750224288941922, -135.546875 -96" stroke="#9370DB" stroke-width="1.3" fill="none" stroke-dasharray="0 0" style=""/></g><g class="annotation-group text" transform="translate(-29.6171875, -72)"><g class="label" style="" transform="translate(0,-12)"><foreignObject width="59.234375" height="24"><div xmlns="http://www.w3.org/1999/xhtml" style="display: table-cell; white-space: nowrap; line-height: 1.5; max-width: 105px; text-align: center;"><span class="nodeLabel markdown-node-label" style=""><p>«Entity»</p></span></div></foreignObject></g></g><g class="label-group text" transform="translate(-59.59375, -48)"><g class="label" style="font-weight: bolder" transform="translate(0,-12)"><foreignObject width="119.1875" height="24"><div xmlns="http://www.w3.org/1999/xhtml" style="display: table-cell; white-space: nowrap; line-height: 1.5; max-width: 161px; text-align: center;"><span class="nodeLabel markdown-node-label" style=""><p>AdmissionToken</p></span></div></foreignObject></g></g><g class="members-group text" transform="translate(-123.546875, 0)"><g class="label" style="" transform="translate(0,-12)"><foreignObject width="187.5" height="24"><div xmlns="http://www.w3.org/1999/xhtml" style="display: table-cell; white-space: nowrap; line-height: 1.5; max-width: 231px; text-align: center;"><span class="nodeLabel markdown-node-label" style=""><p>-BuyerReference buyerRef</p></span></div></foreignObject></g><g class="label" style="" transform="translate(0,12)"><foreignObject width="127.625" height="24"><div xmlns="http://www.w3.org/1999/xhtml" style="display: table-cell; white-space: nowrap; line-height: 1.5; max-width: 171px; text-align: center;"><span class="nodeLabel markdown-node-label" style=""><p>-Instant expiresAt</p></span></div></foreignObject></g><g class="label" style="" transform="translate(0,36)"><foreignObject width="138.765625" height="24"><div xmlns="http://www.w3.org/1999/xhtml" style="display: table-cell; white-space: nowrap; line-height: 1.5; max-width: 181px; text-align: center;"><span class="nodeLabel markdown-node-label" style=""><p>-boolean consumed</p></span></div></foreignObject></g></g><g class="methods-group text" transform="translate(-123.546875, 96)"/><g class="divider" style=""><path d="M-135.546875 -24 C-67.08212852028564 -23.99974744992653, 1.3826179594287282 -23.999494899853058, 135.546875 -23.999 M-135.546875 -24 C-38.42265653351292 -23.999641731989517, 58.70156193297416 -23.999283463979037, 135.546875 -23.999" stroke="#9370DB" stroke-width="1.3" fill="none" stroke-dasharray="0 0" style=""/></g><g class="divider" style=""><path d="M-135.546875 72 C-45.13009562823676 72.00033352587204, 45.28668374352648 72.00066705174407, 135.546875 72.001 M-135.546875 72 C-67.86134767570046 72.0002496757204, -0.17582035140091534 72.00049935144078, 135.546875 72.001" stroke="#9370DB" stroke-width="1.3" fill="none" stroke-dasharray="0 0" style=""/></g></g><g class="node default" id="my-svg-classId-QueueStatus-3" data-look="classic" transform="translate(1320.9375, 588)"><g class="basic label-container outer-path"><path d="M-73.32421875 -96 L73.32421875 -96 L73.32421875 96 L-73.32421875 96" stroke="none" stroke-width="0" fill="#ECECFF" style=""/><path d="M-73.32421875 -96 C-32.87242381606138 -96, 7.579371117877244 -96, 73.32421875 -96 M-73.32421875 -96 C-22.7366402036416 -96, 27.850938342716802 -96, 73.32421875 -96 M73.32421875 -96 C73.32421875 -51.265603827488896, 73.32421875 -6.531207654977791, 73.32421875 96 M73.32421875 -96 C73.32421875 -39.550163204279755, 73.32421875 16.89967359144049, 73.32421875 96 M73.32421875 96 C39.101773634297146 96, 4.879328518594292 96, -73.32421875 96 M73.32421875 96 C25.78218584134281 96, -21.759847067314382 96, -73.32421875 96 M-73.32421875 96 C-73.32421875 50.756450086729686, -73.32421875 5.5129001734593714, -73.32421875 -96 M-73.32421875 96 C-73.32421875 43.26467599700379, -73.32421875 -9.470648005992416, -73.32421875 -96" stroke="#9370DB" stroke-width="1.3" fill="none" stroke-dasharray="0 0" style=""/></g><g class="annotation-group text" transform="translate(-53.9296875, -72)"><g class="label" style="" transform="translate(0,-12)"><foreignObject width="107.859375" height="24"><div xmlns="http://www.w3.org/1999/xhtml" style="display: table-cell; white-space: nowrap; line-height: 1.5; max-width: 146px; text-align: center;"><span class="nodeLabel markdown-node-label" style=""><p>«enumeration»</p></span></div></foreignObject></g></g><g class="label-group text" transform="translate(-47.1875, -48)"><g class="label" style="font-weight: bolder" transform="translate(0,-12)"><foreignObject width="94.375" height="24"><div xmlns="http://www.w3.org/1999/xhtml" style="display: table-cell; white-space: nowrap; line-height: 1.5; max-width: 131px; text-align: center;"><span class="nodeLabel markdown-node-label" style=""><p>QueueStatus</p></span></div></foreignObject></g></g><g class="members-group text" transform="translate(-61.32421875, 0)"><g class="label" style="" transform="translate(0,-12)"><foreignObject width="65.390625" height="24"><div xmlns="http://www.w3.org/1999/xhtml" style="display: table-cell; white-space: nowrap; line-height: 1.5; max-width: 126px; text-align: center;"><span class="nodeLabel markdown-node-label" style=""><p>INACTIVE</p></span></div></foreignObject></g><g class="label" style="" transform="translate(0,12)"><foreignObject width="50.71875" height="24"><div xmlns="http://www.w3.org/1999/xhtml" style="display: table-cell; white-space: nowrap; line-height: 1.5; max-width: 110px; text-align: center;"><span class="nodeLabel markdown-node-label" style=""><p>ACTIVE</p></span></div></foreignObject></g><g class="label" style="" transform="translate(0,36)"><foreignObject width="68.71875" height="24"><div xmlns="http://www.w3.org/1999/xhtml" style="display: table-cell; white-space: nowrap; line-height: 1.5; max-width: 131px; text-align: center;"><span class="nodeLabel markdown-node-label" style=""><p>DRAINING</p></span></div></foreignObject></g></g><g class="methods-group text" transform="translate(-61.32421875, 96)"/><g class="divider" style=""><path d="M-73.32421875 -24 C-18.372744756212228 -23.999625284285802, 36.578729237575544 -23.999250568571604, 73.32421875 -23.999 M-73.32421875 -24 C-34.26302809208465 -23.99973364059431, 4.798162565830694 -23.99946728118862, 73.32421875 -23.999" stroke="#9370DB" stroke-width="1.3" fill="none" stroke-dasharray="0 0" style=""/></g><g class="divider" style=""><path d="M-73.32421875 72 C-32.627148801965284 72.0002775145146, 8.069921146069433 72.00055502902919, 73.32421875 72.001 M-73.32421875 72 C-40.72392504570726 72.00022230235972, -8.123631341414523 72.00044460471942, 73.32421875 72.001" stroke="#9370DB" stroke-width="1.3" fill="none" stroke-dasharray="0 0" style=""/></g></g><g class="node default" id="my-svg-classId-QueueRepository-4" data-look="classic" transform="translate(192.98828125, 467)"><g class="basic label-container outer-path"><path d="M-184.98828125 -87 L184.98828125 -87 L184.98828125 87 L-184.98828125 87" stroke="none" stroke-width="0" fill="#ECECFF" style=""/><path d="M-184.98828125 -87 C-39.53734344648399 -87, 105.91359435703203 -87, 184.98828125 -87 M-184.98828125 -87 C-44.914978914530764 -87, 95.15832342093847 -87, 184.98828125 -87 M184.98828125 -87 C184.98828125 -20.69755150519947, 184.98828125 45.60489698960106, 184.98828125 87 M184.98828125 -87 C184.98828125 -31.004223633068634, 184.98828125 24.991552733862733, 184.98828125 87 M184.98828125 87 C79.20198872697192 87, -26.58430379605616 87, -184.98828125 87 M184.98828125 87 C60.78868919533048 87, -63.410902859339046 87, -184.98828125 87 M-184.98828125 87 C-184.98828125 25.567506012851496, -184.98828125 -35.86498797429701, -184.98828125 -87 M-184.98828125 87 C-184.98828125 50.17306221022963, -184.98828125 13.346124420459262, -184.98828125 -87" stroke="#9370DB" stroke-width="1.3" fill="none" stroke-dasharray="0 0" style=""/></g><g class="annotation-group text" transform="translate(-45.875, -63)"><g class="label" style="" transform="translate(0,-12)"><foreignObject width="91.75" height="24"><div xmlns="http://www.w3.org/1999/xhtml" style="display: table-cell; white-space: nowrap; line-height: 1.5; max-width: 136px; text-align: center;"><span class="nodeLabel markdown-node-label" style=""><p>«Repository»</p></span></div></foreignObject></g></g><g class="label-group text" transform="translate(-64.2109375, -39)"><g class="label" style="font-weight: bolder" transform="translate(0,-12)"><foreignObject width="128.421875" height="24"><div xmlns="http://www.w3.org/1999/xhtml" style="display: table-cell; white-space: nowrap; line-height: 1.5; max-width: 163px; text-align: center;"><span class="nodeLabel markdown-node-label" style=""><p>QueueRepository</p></span></div></foreignObject></g></g><g class="members-group text" transform="translate(-172.98828125, 9)"/><g class="methods-group text" transform="translate(-172.98828125, 39)"><g class="label" style="" transform="translate(0,-12)"><foreignObject width="281.765625" height="24"><div xmlns="http://www.w3.org/1999/xhtml" style="display: table-cell; white-space: nowrap; line-height: 1.5; max-width: 319px; text-align: center;"><span class="nodeLabel markdown-node-label" style=""><p>+findByEventId(EventId) : VirtualQueue</p></span></div></foreignObject></g><g class="label" style="" transform="translate(0,12)"><foreignObject width="190.859375" height="24"><div xmlns="http://www.w3.org/1999/xhtml" style="display: table-cell; white-space: nowrap; line-height: 1.5; max-width: 232px; text-align: center;"><span class="nodeLabel markdown-node-label" style=""><p>+save(VirtualQueue) : void</p></span></div></foreignObject></g></g><g class="divider" style=""><path d="M-184.98828125 -15 C-93.41658036115138 -14.9997524932383, -1.8448794723027504 -14.999504986476602, 184.98828125 -14.999 M-184.98828125 -15 C-66.74201412437166 -14.999680395249023, 51.50425300125667 -14.999360790498043, 184.98828125 -14.999" stroke="#9370DB" stroke-width="1.3" fill="none" stroke-dasharray="0 0" style=""/></g><g class="divider" style=""><path d="M-184.98828125 9 C-92.2577949273794 9.000250638812622, 0.4726913952412133 9.000501277625242, 184.98828125 9.001 M-184.98828125 9 C-84.08548813122715 9.000272727527486, 16.817304987545697 9.000545455054974, 184.98828125 9.001" stroke="#9370DB" stroke-width="1.3" fill="none" stroke-dasharray="0 0" style=""/></g></g><g class="node default" id="my-svg-classId-Event-5" data-look="classic" transform="translate(1320.9375, 776)"><g class="basic label-container outer-path"><path d="M-33.265625 -42 L33.265625 -42 L33.265625 42 L-33.265625 42" stroke="none" stroke-width="0" fill="#ECECFF" style=""/><path d="M-33.265625 -42 C-18.368352978959376 -42, -3.471080957918751 -42, 33.265625 -42 M-33.265625 -42 C-14.66186013183711 -42, 3.9419047363257818 -42, 33.265625 -42 M33.265625 -42 C33.265625 -20.4575687074451, 33.265625 1.0848625851098035, 33.265625 42 M33.265625 -42 C33.265625 -23.730594887810778, 33.265625 -5.4611897756215555, 33.265625 42 M33.265625 42 C14.976197155242325 42, -3.3132306895153505 42, -33.265625 42 M33.265625 42 C18.825101372336253 42, 4.384577744672505 42, -33.265625 42 M-33.265625 42 C-33.265625 21.924836854318073, -33.265625 1.8496737086361463, -33.265625 -42 M-33.265625 42 C-33.265625 9.971838961341803, -33.265625 -22.056322077316395, -33.265625 -42" stroke="#9370DB" stroke-width="1.3" fill="none" stroke-dasharray="0 0" style=""/></g><g class="annotation-group text" transform="translate(0, -18)"/><g class="label-group text" transform="translate(-21.265625, -18)"><g class="label" style="font-weight: bolder" transform="translate(0,-12)"><foreignObject width="42.53125" height="24"><div xmlns="http://www.w3.org/1999/xhtml" style="display: table-cell; white-space: nowrap; line-height: 1.5; max-width: 89px; text-align: center;"><span class="nodeLabel markdown-node-label" style=""><p>Event</p></span></div></foreignObject></g></g><g class="members-group text" transform="translate(-21.265625, 30)"/><g class="methods-group text" transform="translate(-21.265625, 60)"/><g class="divider" style=""><path d="M-33.265625 6 C-10.11177989568479 6.000348014581183, 13.042065208630419 6.000696029162365, 33.265625 6.001 M-33.265625 6 C-19.34126014805029 6.000209290594299, -5.416895296100574 6.000418581188598, 33.265625 6.001" stroke="#9370DB" stroke-width="1.3" fill="none" stroke-dasharray="0 0" style=""/></g><g class="divider" style=""><path d="M-33.265625 24 C-12.781509592549476 24.000307887126837, 7.702605814901048 24.000615774253678, 33.265625 24.001 M-33.265625 24 C-11.880904982497281 24.00032142369214, 9.503815035005438 24.000642847384274, 33.265625 24.001" stroke="#9370DB" stroke-width="1.3" fill="none" stroke-dasharray="0 0" style=""/></g></g></g></g></g><defs><filter id="my-svg-drop-shadow" height="130%" width="130%"><feDropShadow dx="4" dy="4" stdDeviation="0" flood-opacity="0.06" flood-color="#000000"/></filter></defs><defs><filter id="my-svg-drop-shadow-small" height="150%" width="150%"><feDropShadow dx="2" dy="2" stdDeviation="0" flood-opacity="0.06" flood-color="#000000"/></filter></defs></svg>