<svg id="my-svg" width="100%" xmlns="http://www.w3.org/2000/svg" xmlns:xlink="http://www.w3.org/1999/xlink" class="classDiagram" style="max-width: 1302.43px; background-color: white;" viewBox="0 0 1302.4296875 718" role="graphics-document document" aria-roledescription="class"><style>#my-svg{font-family:"trebuchet ms",verdana,arial,sans-serif;font-size:16px;fill:#333;}@keyframes edge-animation-frame{from{stroke-dashoffset:0;}}@keyframes dash{to{stroke-dashoffset:0;}}#my-svg .edge-animation-slow{stroke-dasharray:9,5!important;stroke-dashoffset:900;animation:dash 50s linear infinite;stroke-linecap:round;}#my-svg .edge-animation-fast{stroke-dasharray:9,5!important;stroke-dashoffset:900;animation:dash 20s linear infinite;stroke-linecap:round;}#my-svg .error-icon{fill:#552222;}#my-svg .error-text{fill:#552222;stroke:#552222;}#my-svg .edge-thickness-normal{stroke-width:1px;}#my-svg .edge-thickness-thick{stroke-width:3.5px;}#my-svg .edge-pattern-solid{stroke-dasharray:0;}#my-svg .edge-thickness-invisible{stroke-width:0;fill:none;}#my-svg .edge-pattern-dashed{stroke-dasharray:3;}#my-svg .edge-pattern-dotted{stroke-dasharray:2;}#my-svg .marker{fill:#333333;stroke:#333333;}#my-svg .marker.cross{stroke:#333333;}#my-svg svg{font-family:"trebuchet ms",verdana,arial,sans-serif;font-size:16px;}#my-svg p{margin:0;}#my-svg g.classGroup text{fill:#9370DB;stroke:none;font-family:"trebuchet ms",verdana,arial,sans-serif;font-size:10px;}#my-svg g.classGroup text .title{font-weight:bolder;}#my-svg .cluster-label text{fill:#333;}#my-svg .cluster-label span{color:#333;}#my-svg .cluster-label span p{background-color:transparent;}#my-svg .cluster rect{fill:#ffffde;stroke:#aaaa33;stroke-width:1px;}#my-svg .cluster text{fill:#333;}#my-svg .cluster span{color:#333;}#my-svg .nodeLabel,#my-svg .edgeLabel{color:#131300;}#my-svg .noteLabel .nodeLabel,#my-svg .noteLabel .edgeLabel{color:black;}#my-svg .edgeLabel .label rect{fill:#ECECFF;}#my-svg .label text{fill:#131300;}#my-svg .labelBkg{background:#ECECFF;}#my-svg .edgeLabel .label span{background:#ECECFF;}#my-svg .classTitle{font-weight:bolder;}#my-svg .node rect,#my-svg .node circle,#my-svg .node ellipse,#my-svg .node polygon,#my-svg .node path{fill:#ECECFF;stroke:#9370DB;stroke-width:1;}#my-svg .divider{stroke:#9370DB;stroke-width:1;}#my-svg g.clickable{cursor:pointer;}#my-svg g.classGroup rect{fill:#ECECFF;stroke:#9370DB;}#my-svg g.classGroup line{stroke:#9370DB;stroke-width:1;}#my-svg .classLabel .box{stroke:none;stroke-width:0;fill:#ECECFF;opacity:0.5;}#my-svg .classLabel .label{fill:#9370DB;font-size:10px;}#my-svg .relation{stroke:#333333;stroke-width:1;fill:none;}#my-svg .dashed-line{stroke-dasharray:3;}#my-svg .dotted-line{stroke-dasharray:1 2;}#my-svg [id$="-compositionStart"],#my-svg .composition{fill:#333333!important;stroke:#333333!important;stroke-width:1;}#my-svg [id$="-compositionEnd"],#my-svg .composition{fill:#333333!important;stroke:#333333!important;stroke-width:1;}#my-svg [id$="-dependencyStart"],#my-svg .dependency{fill:#333333!important;stroke:#333333!important;stroke-width:1;}#my-svg [id$="-dependencyEnd"],#my-svg .dependency{fill:#333333!important;stroke:#333333!important;stroke-width:1;}#my-svg [id$="-extensionStart"],#my-svg .extension{fill:transparent!important;stroke:#333333!important;stroke-width:1;}#my-svg [id$="-extensionEnd"],#my-svg .extension{fill:transparent!important;stroke:#333333!important;stroke-width:1;}#my-svg [id$="-aggregationStart"],#my-svg .aggregation{fill:transparent!important;stroke:#333333!important;stroke-width:1;}#my-svg [id$="-aggregationEnd"],#my-svg .aggregation{fill:transparent!important;stroke:#333333!important;stroke-width:1;}#my-svg [id$="-lollipopStart"],#my-svg .lollipop{fill:#ECECFF!important;stroke:#333333!important;stroke-width:1;}#my-svg [id$="-lollipopEnd"],#my-svg .lollipop{fill:#ECECFF!important;stroke:#333333!important;stroke-width:1;}#my-svg .edgeTerminals{font-size:11px;line-height:initial;}#my-svg .classTitleText{text-anchor:middle;font-size:18px;fill:#333;}#my-svg .edgeLabel[data-look="neo"]{background-color:rgba(232,232,232, 0.8);text-align:center;}#my-svg .edgeLabel[data-look="neo"] p{background-color:rgba(232,232,232, 0.8);}#my-svg .edgeLabel[data-look="neo"] rect{opacity:0.5;background-color:rgba(232,232,232, 0.8);fill:rgba(232,232,232, 0.8);}#my-svg .label-icon{display:inline-block;height:1em;overflow:visible;vertical-align:-0.125em;}#my-svg .node .label-icon path{fill:currentColor;stroke:revert;stroke-width:revert;}#my-svg .node .neo-node{stroke:#9370DB;}#my-svg [data-look="neo"].node rect,#my-svg [data-look="neo"].cluster rect,#my-svg [data-look="neo"].node polygon{stroke:#9370DB;filter:drop-shadow(1px 2px 2px rgba(185, 185, 185, 1));}#my-svg [data-look="neo"].node path{stroke:#9370DB;stroke-width:1px;}#my-svg [data-look="neo"].node .outer-path{filter:drop-shadow(1px 2px 2px rgba(185, 185, 185, 1));}#my-svg [data-look="neo"].node .neo-line path{stroke:#9370DB;filter:none;}#my-svg [data-look="neo"].node circle{stroke:#9370DB;filter:drop-shadow(1px 2px 2px rgba(185, 185, 185, 1));}#my-svg [data-look="neo"].node circle .state-start{fill:#000000;}#my-svg [data-look="neo"].icon-shape .icon{fill:#9370DB;filter:drop-shadow(1px 2px 2px rgba(185, 185, 185, 1));}#my-svg [data-look="neo"].icon-shape .icon-neo path{stroke:#9370DB;filter:drop-shadow(1px 2px 2px rgba(185, 185, 185, 1));}#my-svg :root{--mermaid-font-family:"trebuchet ms",verdana,arial,sans-serif;}</style><g><defs><marker id="my-svg_class-aggregationStart" class="marker aggregation class" refX="18" refY="7" markerWidth="190" markerHeight="240" orient="auto"><path d="M 18,7 L9,13 L1,7 L9,1 Z"/></marker></defs><defs><marker id="my-svg_class-aggregationEnd" class="marker aggregation class" refX="1" refY="7" markerWidth="20" markerHeight="28" orient="auto"><path d="M 18,7 L9,13 L1,7 L9,1 Z"/></marker></defs><defs><marker id="my-svg_class-aggregationStart-margin" class="marker aggregation class" refX="15" refY="7" markerWidth="190" markerHeight="240" orient="auto" markerUnits="userSpaceOnUse"><path d="M 18,7 L9,13 L1,7 L9,1 Z" style="stroke-width: 2;"/></marker></defs><defs><marker id="my-svg_class-aggregationEnd-margin" class="marker aggregation class" refX="1" refY="7" markerWidth="20" markerHeight="28" orient="auto" markerUnits="userSpaceOnUse"><path d="M 18,7 L9,13 L1,7 L9,1 Z" style="stroke-width: 2;"/></marker></defs><defs><marker id="my-svg_class-extensionStart" class="marker extension class" refX="18" refY="7" markerWidth="190" markerHeight="240" orient="auto" markerUnits="userSpaceOnUse"><path d="M 1,7 L18,13 V 1 Z"/></marker></defs><defs><marker id="my-svg_class-extensionEnd" class="marker extension class" refX="1" refY="7" markerWidth="20" markerHeight="28" orient="auto"><path d="M 1,1 V 13 L18,7 Z"/></marker></defs><marker id="my-svg_class-extensionStart-margin" class="marker extension class" refX="18" refY="7" markerWidth="20" markerHeight="28" orient="auto" markerUnits="userSpaceOnUse" viewBox="0 0 20 14"><polygon points="10,7 18,13 18,1" style="stroke-width: 2; stroke-dasharray: 0;"/></marker><defs><marker id="my-svg_class-extensionEnd-margin" class="marker extension class" refX="9" refY="7" markerWidth="20" markerHeight="28" orient="auto" markerUnits="userSpaceOnUse" viewBox="0 0 20 14"><polygon points="10,1 10,13 18,7" style="stroke-width: 2; stroke-dasharray: 0;"/></marker></defs><defs><marker id="my-svg_class-compositionStart" class="marker composition class" refX="18" refY="7" markerWidth="190" markerHeight="240" orient="auto"><path d="M 18,7 L9,13 L1,7 L9,1 Z"/></marker></defs><defs><marker id="my-svg_class-compositionEnd" class="marker composition class" refX="1" refY="7" markerWidth="20" markerHeight="28" orient="auto"><path d="M 18,7 L9,13 L1,7 L9,1 Z"/></marker></defs><defs><marker id="my-svg_class-compositionStart-margin" class="marker composition class" refX="15" refY="7" markerWidth="190" markerHeight="240" orient="auto" markerUnits="userSpaceOnUse"><path viewBox="0 0 15 15" d="M 18,7 L9,13 L1,7 L9,1 Z" style="stroke-width: 0;"/></marker></defs><defs><marker id="my-svg_class-compositionEnd-margin" class="marker composition class" refX="3.5" refY="7" markerWidth="20" markerHeight="28" orient="auto" markerUnits="userSpaceOnUse"><path d="M 18,7 L9,13 L1,7 L9,1 Z" style="stroke-width: 0;"/></marker></defs><defs><marker id="my-svg_class-dependencyStart" class="marker dependency class" refX="6" refY="7" markerWidth="190" markerHeight="240" orient="auto"><path d="M 5,7 L9,13 L1,7 L9,1 Z"/></marker></defs><defs><marker id="my-svg_class-dependencyEnd" class="marker dependency class" refX="13" refY="7" markerWidth="20" markerHeight="28" orient="auto"><path d="M 18,7 L9,13 L14,7 L9,1 Z"/></marker></defs><defs><marker id="my-svg_class-dependencyStart-margin" class="marker dependency class" refX="4" refY="7" markerWidth="190" markerHeight="240" orient="auto" markerUnits="userSpaceOnUse"><path d="M 5,7 L9,13 L1,7 L9,1 Z" style="stroke-width: 0;"/></marker></defs><defs><marker id="my-svg_class-dependencyEnd-margin" class="marker dependency class" refX="16" refY="7" markerWidth="20" markerHeight="28" orient="auto" markerUnits="userSpaceOnUse"><path d="M 18,7 L9,13 L14,7 L9,1 Z" style="stroke-width: 0;"/></marker></defs><defs><marker id="my-svg_class-lollipopStart" class="marker lollipop class" refX="13" refY="7" markerWidth="190" markerHeight="240" orient="auto"><circle fill="transparent" cx="7" cy="7" r="6"/></marker></defs><defs><marker id="my-svg_class-lollipopEnd" class="marker lollipop class" refX="1" refY="7" markerWidth="190" markerHeight="240" orient="auto"><circle fill="transparent" cx="7" cy="7" r="6"/></marker></defs><defs><marker id="my-svg_class-lollipopStart-margin" class="marker lollipop class" refX="13" refY="7" markerWidth="190" markerHeight="240" orient="auto" markerUnits="userSpaceOnUse"><circle fill="transparent" cx="7" cy="7" r="6" stroke-width="2"/></marker></defs><defs><marker id="my-svg_class-lollipopEnd-margin" class="marker lollipop class" refX="1" refY="7" markerWidth="190" markerHeight="240" orient="auto" markerUnits="userSpaceOnUse"><circle fill="transparent" cx="7" cy="7" r="6" stroke-width="2"/></marker></defs><g class="root"><g class="clusters"/><g class="edgePaths"><path d="M872.824,246.288L890.926,222.574C909.028,198.859,945.233,151.429,974.977,127.715C1004.721,104,1028.005,104,1039.647,104L1051.289,104" id="my-svg-id_Lottery_LotteryWinner_1" class="edge-thickness-normal edge-pattern-solid relation" style=";;;" data-edge="true" data-et="edge" data-id="id_Lottery_LotteryWinner_1" data-points="W3sieCI6ODYyLjM1NzI4MjM2NjA3MTQsInkiOjI2MH0seyJ4Ijo5ODEuNDM3NSwieSI6MTA0fSx7IngiOjEwNTEuMjg5MDYyNSwieSI6MTA0fV0=" data-look="classic" marker-start="url(#my-svg_class-compositionStart)"/><path d="M911.586,371.601L923.228,367.334C934.87,363.067,958.154,354.534,981.792,350.267C1005.431,346,1029.424,346,1041.421,346L1053.418,346" id="my-svg-id_Lottery_LotteryStatus_2" class="edge-thickness-normal edge-pattern-solid relation" style=";;;" data-edge="true" data-et="edge" data-id="id_Lottery_LotteryStatus_2" data-points="W3sieCI6OTExLjU4NTkzNzUsInkiOjM3MS42MDA1NzI2NTU2OTA3N30seyJ4Ijo5ODEuNDM3NSwieSI6MzQ2fSx7IngiOjEwNTkuNDE3OTY4NzUsInkiOjM0Nn1d" data-look="classic" marker-end="url(#my-svg_class-dependencyEnd)"/><path d="M911.586,508.399L923.228,512.666C934.87,516.933,958.154,525.466,995.155,529.733C1032.156,534,1082.875,534,1108.234,534L1133.594,534" id="my-svg-id_Lottery_Event_3" class="edge-thickness-normal edge-pattern-solid relation" style=";;;" data-edge="true" data-et="edge" data-id="id_Lottery_Event_3" data-points="W3sieCI6OTExLjU4NTkzNzUsInkiOjUwOC4zOTk0MjczNDQzMDkyM30seyJ4Ijo5ODEuNDM3NSwieSI6NTM0fSx7IngiOjExMzkuNTkzNzUsInkiOjUzNH1d" data-look="classic" marker-end="url(#my-svg_class-dependencyEnd)"/><path d="M911.586,605.905L923.228,616.254C934.87,626.603,958.154,647.302,993.682,657.651C1029.211,668,1076.984,668,1100.871,668L1124.758,668" id="my-svg-id_Lottery_Member_4" class="edge-thickness-normal edge-pattern-solid relation" style=";;;" data-edge="true" data-et="edge" data-id="id_Lottery_Member_4" data-points="W3sieCI6OTExLjU4NTkzNzUsInkiOjYwNS45MDQ5OTM5ODQwNjkyfSx7IngiOjk4MS40Mzc1LCJ5Ijo2Njh9LHsieCI6MTEzMC43NTc4MTI1LCJ5Ijo2Njh9XQ==" data-look="classic" marker-end="url(#my-svg_class-dependencyEnd)"/><path d="M339.594,440L356.155,440C372.716,440,405.839,440,437.961,440C470.083,440,501.206,440,516.767,440L532.328,440" id="my-svg-id_LotteryRepository_Lottery_5" class="edge-thickness-normal edge-pattern-dashed relation" style=";;;" data-edge="true" data-et="edge" data-id="id_LotteryRepository_Lottery_5" data-points="W3sieCI6MzM5LjU5Mzc1LCJ5Ijo0NDB9LHsieCI6NDM4Ljk2MDkzNzUsInkiOjQ0MH0seyJ4Ijo1MzguMzI4MTI1LCJ5Ijo0NDB9XQ==" data-look="classic" marker-end="url(#my-svg_class-dependencyEnd)"/></g><g class="edgeLabels"><g class="edgeLabel" transform="translate(981.4375, 104)"><g class="label" data-id="id_Lottery_LotteryWinner_1" transform="translate(-27.6875, -12)"><foreignObject width="55.375" height="24"><div xmlns="http://www.w3.org/1999/xhtml" class="labelBkg" style="display: table-cell; white-space: nowrap; line-height: 1.5; max-width: 200px; text-align: center;"><span class="edgeLabel"><p>winners</p></span></div></foreignObject></g></g><g class="edgeLabel" transform="translate(981.4375, 346)"><g class="label" data-id="id_Lottery_LotteryStatus_2" transform="translate(-21.3984375, -12)"><foreignObject width="42.796875" height="24"><div xmlns="http://www.w3.org/1999/xhtml" class="labelBkg" style="display: table-cell; white-space: nowrap; line-height: 1.5; max-width: 200px; text-align: center;"><span class="edgeLabel"><p>status</p></span></div></foreignObject></g></g><g class="edgeLabel" transform="translate(981.4375, 534)"><g class="label" data-id="id_Lottery_Event_3" transform="translate(-20.1875, -12)"><foreignObject width="40.375" height="24"><div xmlns="http://www.w3.org/1999/xhtml" class="labelBkg" style="display: table-cell; white-space: nowrap; line-height: 1.5; max-width: 200px; text-align: center;"><span class="edgeLabel"><p>event</p></span></div></foreignObject></g></g><g class="edgeLabel" transform="translate(981.4375, 668)"><g class="label" data-id="id_Lottery_Member_4" transform="translate(-44.8515625, -12)"><foreignObject width="89.703125" height="24"><div xmlns="http://www.w3.org/1999/xhtml" class="labelBkg" style="display: table-cell; white-space: nowrap; line-height: 1.5; max-width: 200px; text-align: center;"><span class="edgeLabel"><p>registrations</p></span></div></foreignObject></g></g><g class="edgeLabel" transform="translate(438.9609375, 440)"><g class="label" data-id="id_LotteryRepository_Lottery_5" transform="translate(-74.3671875, -12)"><foreignObject width="148.734375" height="24"><div xmlns="http://www.w3.org/1999/xhtml" class="labelBkg" style="display: table-cell; white-space: nowrap; line-height: 1.5; max-width: 200px; text-align: center;"><span class="edgeLabel"><p>manages persistence</p></span></div></foreignObject></g></g><g class="edgeTerminals" transform="translate(884.8988722876169, 255.1909730243706)"><g class="inner" transform="translate(-2.890625, -8.25)"><foreignObject width="5.78125" height="16.5" style="width: 9px; height: 12px;"><div xmlns="http://www.w3.org/1999/xhtml" style="display: table-cell; white-space: nowrap; line-height: 1.5;"><span class="edgeLabel"><p>1</p></span></div></foreignObject></g></g><g class="edgeTerminals" transform="translate(922.8554129325786, 528.5053686745441)"><g class="inner" transform="translate(-2.890625, -8.25)"><foreignObject width="5.78125" height="16.5" style="width: 9px; height: 12px;"><div xmlns="http://www.w3.org/1999/xhtml" style="display: table-cell; white-space: nowrap; line-height: 1.5;"><span class="edgeLabel"><p>1</p></span></div></foreignObject></g></g><g class="edgeTerminals" transform="translate(914.6992757147361, 628.7426185775577)"><g class="inner" transform="translate(-2.0234375, -8.25)"><foreignObject width="4.046875" height="16.5" style="width: 9px; height: 12px;"><div xmlns="http://www.w3.org/1999/xhtml" style="display: table-cell; white-space: nowrap; line-height: 1.5;"><span class="edgeLabel"><p>*</p></span></div></foreignObject></g></g><g class="edgeTerminals" transform="translate(1028.78906125, 84)"><g class="inner" transform="translate(-8.9453125, -8.25)"/><foreignObject width="17.890625" height="16.5" style="width: 36px; height: 12px;"><div xmlns="http://www.w3.org/1999/xhtml" style="display: table-cell; white-space: nowrap; line-height: 1.5;"><span class="edgeLabel"><p>0..*</p></span></div></foreignObject></g><g class="edgeTerminals" transform="translate(1117.09375, 514)"><g class="inner" transform="translate(-2.890625, -8.25)"/><foreignObject width="5.78125" height="16.5" style="width: 9px; height: 12px;"><div xmlns="http://www.w3.org/1999/xhtml" style="display: table-cell; white-space: nowrap; line-height: 1.5;"><span class="edgeLabel"><p>1</p></span></div></foreignObject></g><g class="edgeTerminals" transform="translate(1108.25781125, 648)"><g class="inner" transform="translate(-2.0234375, -8.25)"/><foreignObject width="4.046875" height="16.5" style="width: 9px; height: 12px;"><div xmlns="http://www.w3.org/1999/xhtml" style="display: table-cell; white-space: nowrap; line-height: 1.5;"><span class="edgeLabel"><p>*</p></span></div></foreignObject></g></g><g class="nodes"><g class="node default" id="my-svg-classId-Lottery-0" data-look="classic" transform="translate(724.95703125, 440)"><g class="basic label-container outer-path"><path d="M-186.62890625 -180 L186.62890625 -180 L186.62890625 180 L-186.62890625 180" stroke="none" stroke-width="0" fill="#ECECFF" style=""/><path d="M-186.62890625 -180 C-95.40337709595548 -180, -4.177847941910954 -180, 186.62890625 -180 M-186.62890625 -180 C-58.96857546919415 -180, 68.6917553116117 -180, 186.62890625 -180 M186.62890625 -180 C186.62890625 -81.70086962722783, 186.62890625 16.598260745544337, 186.62890625 180 M186.62890625 -180 C186.62890625 -57.048579649998715, 186.62890625 65.90284070000257, 186.62890625 180 M186.62890625 180 C110.24344714839172 180, 33.85798804678345 180, -186.62890625 180 M186.62890625 180 C45.30302835838211 180, -96.02284953323579 180, -186.62890625 180 M-186.62890625 180 C-186.62890625 51.75052743031054, -186.62890625 -76.49894513937892, -186.62890625 -180 M-186.62890625 180 C-186.62890625 67.76413059557538, -186.62890625 -44.47173880884924, -186.62890625 -180" stroke="#9370DB" stroke-width="1.3" fill="none" stroke-dasharray="0 0" style=""/></g><g class="annotation-group text" transform="translate(-62.8671875, -156)"><g class="label" style="" transform="translate(0,-12)"><foreignObject width="125.734375" height="24"><div xmlns="http://www.w3.org/1999/xhtml" style="display: table-cell; white-space: nowrap; line-height: 1.5; max-width: 168px; text-align: center;"><span class="nodeLabel markdown-node-label" style=""><p>«Aggregate Root»</p></span></div></foreignObject></g></g><g class="label-group text" transform="translate(-27.578125, -132)"><g class="label" style="font-weight: bolder" transform="translate(0,-12)"><foreignObject width="55.15625" height="24"><div xmlns="http://www.w3.org/1999/xhtml" style="display: table-cell; white-space: nowrap; line-height: 1.5; max-width: 99px; text-align: center;"><span class="nodeLabel markdown-node-label" style=""><p>Lottery</p></span></div></foreignObject></g></g><g class="members-group text" transform="translate(-174.62890625, -84)"><g class="label" style="" transform="translate(0,-12)"><foreignObject width="138.46875" height="24"><div xmlns="http://www.w3.org/1999/xhtml" style="display: table-cell; white-space: nowrap; line-height: 1.5; max-width: 181px; text-align: center;"><span class="nodeLabel markdown-node-label" style=""><p>-LotteryId lotteryId</p></span></div></foreignObject></g><g class="label" style="" transform="translate(0,12)"><foreignObject width="118.03125" height="24"><div xmlns="http://www.w3.org/1999/xhtml" style="display: table-cell; white-space: nowrap; line-height: 1.5; max-width: 164px; text-align: center;"><span class="nodeLabel markdown-node-label" style=""><p>-EventId eventId</p></span></div></foreignObject></g><g class="label" style="" transform="translate(0,36)"><foreignObject width="149.703125" height="24"><div xmlns="http://www.w3.org/1999/xhtml" style="display: table-cell; white-space: nowrap; line-height: 1.5; max-width: 187px; text-align: center;"><span class="nodeLabel markdown-node-label" style=""><p>-LotteryStatus status</p></span></div></foreignObject></g><g class="label" style="" transform="translate(0,60)"><foreignObject width="210.53125" height="24"><div xmlns="http://www.w3.org/1999/xhtml" style="display: table-cell; white-space: nowrap; line-height: 1.5; max-width: 287px; text-align: center;"><span class="nodeLabel markdown-node-label" style=""><p>-Set&lt;MemberId&gt; registrations</p></span></div></foreignObject></g><g class="label" style="" transform="translate(0,84)"><foreignObject width="208.234375" height="24"><div xmlns="http://www.w3.org/1999/xhtml" style="display: table-cell; white-space: nowrap; line-height: 1.5; max-width: 285px; text-align: center;"><span class="nodeLabel markdown-node-label" style=""><p>-Set&lt;LotteryWinner&gt; winners</p></span></div></foreignObject></g><g class="label" style="" transform="translate(0,108)"><foreignObject width="174.265625" height="24"><div xmlns="http://www.w3.org/1999/xhtml" style="display: table-cell; white-space: nowrap; line-height: 1.5; max-width: 212px; text-align: center;"><span class="nodeLabel markdown-node-label" style=""><p>-Instant drawTimestamp</p></span></div></foreignObject></g></g><g class="methods-group text" transform="translate(-174.62890625, 84)"><g class="label" style="" transform="translate(0,-12)"><foreignObject width="274.65625" height="24"><div xmlns="http://www.w3.org/1999/xhtml" style="display: table-cell; white-space: nowrap; line-height: 1.5; max-width: 307px; text-align: center;"><span class="nodeLabel markdown-node-label" style=""><p>+register(memberId: MemberId) : void</p></span></div></foreignObject></g><g class="label" style="" transform="translate(0,12)"><foreignObject width="101.984375" height="24"><div xmlns="http://www.w3.org/1999/xhtml" style="display: table-cell; white-space: nowrap; line-height: 1.5; max-width: 150px; text-align: center;"><span class="nodeLabel markdown-node-label" style=""><p>+close() : void</p></span></div></foreignObject></g><g class="label" style="" transform="translate(0,36)"><foreignObject width="222.234375" height="24"><div xmlns="http://www.w3.org/1999/xhtml" style="display: table-cell; white-space: nowrap; line-height: 1.5; max-width: 258px; text-align: center;"><span class="nodeLabel markdown-node-label" style=""><p>+draw(winnerCount: int) : void</p></span></div></foreignObject></g><g class="label" style="" transform="translate(0,60)"><foreignObject width="286.390625" height="24"><div xmlns="http://www.w3.org/1999/xhtml" style="display: table-cell; white-space: nowrap; line-height: 1.5; max-width: 318px; text-align: center;"><span class="nodeLabel markdown-node-label" style=""><p>+validateCode(code: String) : MemberId</p></span></div></foreignObject></g></g><g class="divider" style=""><path d="M-186.62890625 -108 C-81.03998808235963 -107.99971711531646, 24.548930085280745 -107.99943423063291, 186.62890625 -107.999 M-186.62890625 -108 C-43.94377890096567 -107.99961773036605, 98.74134844806866 -107.99923546073212, 186.62890625 -107.999" stroke="#9370DB" stroke-width="1.3" fill="none" stroke-dasharray="0 0" style=""/></g><g class="divider" style=""><path d="M-186.62890625 60 C-78.64145414073536 60.00028931062791, 29.345997968529275 60.00057862125583, 186.62890625 60.001 M-186.62890625 60 C-48.03419866826533 60.000371310935606, 90.56050891346933 60.00074262187121, 186.62890625 60.001" stroke="#9370DB" stroke-width="1.3" fill="none" stroke-dasharray="0 0" style=""/></g></g><g class="node default" id="my-svg-classId-LotteryWinner-1" data-look="classic" transform="translate(1172.859375, 104)"><g class="basic label-container outer-path"><path d="M-121.5703125 -96 L121.5703125 -96 L121.5703125 96 L-121.5703125 96" stroke="none" stroke-width="0" fill="#ECECFF" style=""/><path d="M-121.5703125 -96 C-63.593482374235585 -96, -5.616652248471169 -96, 121.5703125 -96 M-121.5703125 -96 C-35.21564451981243 -96, 51.13902346037514 -96, 121.5703125 -96 M121.5703125 -96 C121.5703125 -55.50570067734289, 121.5703125 -15.011401354685773, 121.5703125 96 M121.5703125 -96 C121.5703125 -41.81424765857549, 121.5703125 12.371504682849022, 121.5703125 96 M121.5703125 96 C48.98579372756403 96, -23.59872504487194 96, -121.5703125 96 M121.5703125 96 C57.36111399194486 96, -6.848084516110276 96, -121.5703125 96 M-121.5703125 96 C-121.5703125 32.053059013769726, -121.5703125 -31.893881972460548, -121.5703125 -96 M-121.5703125 96 C-121.5703125 25.640855744591477, -121.5703125 -44.71828851081705, -121.5703125 -96" stroke="#9370DB" stroke-width="1.3" fill="none" stroke-dasharray="0 0" style=""/></g><g class="annotation-group text" transform="translate(-29.6171875, -72)"><g class="label" style="" transform="translate(0,-12)"><foreignObject width="59.234375" height="24"><div xmlns="http://www.w3.org/1999/xhtml" style="display: table-cell; white-space: nowrap; line-height: 1.5; max-width: 105px; text-align: center;"><span class="nodeLabel markdown-node-label" style=""><p>«Entity»</p></span></div></foreignObject></g></g><g class="label-group text" transform="translate(-54.5, -48)"><g class="label" style="font-weight: bolder" transform="translate(0,-12)"><foreignObject width="109" height="24"><div xmlns="http://www.w3.org/1999/xhtml" style="display: table-cell; white-space: nowrap; line-height: 1.5; max-width: 146px; text-align: center;"><span class="nodeLabel markdown-node-label" style=""><p>LotteryWinner</p></span></div></foreignObject></g></g><g class="members-group text" transform="translate(-109.5703125, 0)"><g class="label" style="" transform="translate(0,-12)"><foreignObject width="153.796875" height="24"><div xmlns="http://www.w3.org/1999/xhtml" style="display: table-cell; white-space: nowrap; line-height: 1.5; max-width: 199px; text-align: center;"><span class="nodeLabel markdown-node-label" style=""><p>-MemberId memberId</p></span></div></foreignObject></g><g class="label" style="" transform="translate(0,12)"><foreignObject width="164.640625" height="24"><div xmlns="http://www.w3.org/1999/xhtml" style="display: table-cell; white-space: nowrap; line-height: 1.5; max-width: 208px; text-align: center;"><span class="nodeLabel markdown-node-label" style=""><p>-String permissionCode</p></span></div></foreignObject></g><g class="label" style="" transform="translate(0,36)"><foreignObject width="138.53125" height="24"><div xmlns="http://www.w3.org/1999/xhtml" style="display: table-cell; white-space: nowrap; line-height: 1.5; max-width: 183px; text-align: center;"><span class="nodeLabel markdown-node-label" style=""><p>-Instant codeExpiry</p></span></div></foreignObject></g></g><g class="methods-group text" transform="translate(-109.5703125, 96)"/><g class="divider" style=""><path d="M-121.5703125 -24 C-26.231683772468116 -23.999607886881396, 69.10694495506377 -23.999215773762796, 121.5703125 -23.999 M-121.5703125 -24 C-45.24036391112794 -23.999686066659617, 31.089584677744114 -23.999372133319234, 121.5703125 -23.999" stroke="#9370DB" stroke-width="1.3" fill="none" stroke-dasharray="0 0" style=""/></g><g class="divider" style=""><path d="M-121.5703125 72 C-34.81451715549228 72.00035681324478, 51.941278189015435 72.00071362648957, 121.5703125 72.001 M-121.5703125 72 C-52.30414555372917 72.00028488109277, 16.962021392541658 72.00056976218553, 121.5703125 72.001" stroke="#9370DB" stroke-width="1.3" fill="none" stroke-dasharray="0 0" style=""/></g></g><g class="node default" id="my-svg-classId-LotteryStatus-2" data-look="classic" transform="translate(1172.859375, 346)"><g class="basic label-container outer-path"><path d="M-113.44140625 -96 L113.44140625 -96 L113.44140625 96 L-113.44140625 96" stroke="none" stroke-width="0" fill="#ECECFF" style=""/><path d="M-113.44140625 -96 C-45.18742165061933 -96, 23.066562948761344 -96, 113.44140625 -96 M-113.44140625 -96 C-27.886321606262186 -96, 57.66876303747563 -96, 113.44140625 -96 M113.44140625 -96 C113.44140625 -48.10160349792277, 113.44140625 -0.2032069958455338, 113.44140625 96 M113.44140625 -96 C113.44140625 -43.959499556401745, 113.44140625 8.08100088719651, 113.44140625 96 M113.44140625 96 C53.68717568468044 96, -6.06705488063912 96, -113.44140625 96 M113.44140625 96 C65.79120919227124 96, 18.14101213454248 96, -113.44140625 96 M-113.44140625 96 C-113.44140625 22.38511315969008, -113.44140625 -51.22977368061984, -113.44140625 -96 M-113.44140625 96 C-113.44140625 27.546633353442274, -113.44140625 -40.90673329311545, -113.44140625 -96" stroke="#9370DB" stroke-width="1.3" fill="none" stroke-dasharray="0 0" style=""/></g><g class="annotation-group text" transform="translate(-53.9296875, -72)"><g class="label" style="" transform="translate(0,-12)"><foreignObject width="107.859375" height="24"><div xmlns="http://www.w3.org/1999/xhtml" style="display: table-cell; white-space: nowrap; line-height: 1.5; max-width: 146px; text-align: center;"><span class="nodeLabel markdown-node-label" style=""><p>«enumeration»</p></span></div></foreignObject></g></g><g class="label-group text" transform="translate(-50.4453125, -48)"><g class="label" style="font-weight: bolder" transform="translate(0,-12)"><foreignObject width="100.890625" height="24"><div xmlns="http://www.w3.org/1999/xhtml" style="display: table-cell; white-space: nowrap; line-height: 1.5; max-width: 137px; text-align: center;"><span class="nodeLabel markdown-node-label" style=""><p>LotteryStatus</p></span></div></foreignObject></g></g><g class="members-group text" transform="translate(-101.44140625, 0)"><g class="label" style="" transform="translate(0,-12)"><foreignObject width="148.953125" height="24"><div xmlns="http://www.w3.org/1999/xhtml" style="display: table-cell; white-space: nowrap; line-height: 1.5; max-width: 216px; text-align: center;"><span class="nodeLabel markdown-node-label" style=""><p>REGISTRATION_OPEN</p></span></div></foreignObject></g><g class="label" style="" transform="translate(0,12)"><foreignObject width="54.53125" height="24"><div xmlns="http://www.w3.org/1999/xhtml" style="display: table-cell; white-space: nowrap; line-height: 1.5; max-width: 113px; text-align: center;"><span class="nodeLabel markdown-node-label" style=""><p>CLOSED</p></span></div></foreignObject></g><g class="label" style="" transform="translate(0,36)"><foreignObject width="51" height="24"><div xmlns="http://www.w3.org/1999/xhtml" style="display: table-cell; white-space: nowrap; line-height: 1.5; max-width: 111px; text-align: center;"><span class="nodeLabel markdown-node-label" style=""><p>DRAWN</p></span></div></foreignObject></g></g><g class="methods-group text" transform="translate(-101.44140625, 96)"/><g class="divider" style=""><path d="M-113.44140625 -24 C-38.49773809400453 -23.99966968115685, 36.445930061990936 -23.999339362313695, 113.44140625 -23.999 M-113.44140625 -24 C-44.06766614147675 -23.99969423095851, 25.3060739670465 -23.99938846191702, 113.44140625 -23.999" stroke="#9370DB" stroke-width="1.3" fill="none" stroke-dasharray="0 0" style=""/></g><g class="divider" style=""><path d="M-113.44140625 72 C-48.70633105030252 72.00028532383959, 16.028744149394953 72.00057064767918, 113.44140625 72.001 M-113.44140625 72 C-58.80964978624406 72.00024079283865, -4.177893322488117 72.0004815856773, 113.44140625 72.001" stroke="#9370DB" stroke-width="1.3" fill="none" stroke-dasharray="0 0" style=""/></g></g><g class="node default" id="my-svg-classId-LotteryRepository-3" data-look="classic" transform="translate(173.796875, 440)"><g class="basic label-container outer-path"><path d="M-165.796875 -87 L165.796875 -87 L165.796875 87 L-165.796875 87" stroke="none" stroke-width="0" fill="#ECECFF" style=""/><path d="M-165.796875 -87 C-47.96099092564923 -87, 69.87489314870155 -87, 165.796875 -87 M-165.796875 -87 C-57.19771705890119 -87, 51.40144088219762 -87, 165.796875 -87 M165.796875 -87 C165.796875 -42.34989397457913, 165.796875 2.3002120508417363, 165.796875 87 M165.796875 -87 C165.796875 -22.899230724733584, 165.796875 41.20153855053283, 165.796875 87 M165.796875 87 C73.96337928576611 87, -17.87011642846778 87, -165.796875 87 M165.796875 87 C79.64813214976697 87, -6.500610700466069 87, -165.796875 87 M-165.796875 87 C-165.796875 24.57841987446841, -165.796875 -37.84316025106318, -165.796875 -87 M-165.796875 87 C-165.796875 23.828427211434814, -165.796875 -39.34314557713037, -165.796875 -87" stroke="#9370DB" stroke-width="1.3" fill="none" stroke-dasharray="0 0" style=""/></g><g class="annotation-group text" transform="translate(-45.875, -63)"><g class="label" style="" transform="translate(0,-12)"><foreignObject width="91.75" height="24"><div xmlns="http://www.w3.org/1999/xhtml" style="display: table-cell; white-space: nowrap; line-height: 1.5; max-width: 136px; text-align: center;"><span class="nodeLabel markdown-node-label" style=""><p>«Repository»</p></span></div></foreignObject></g></g><g class="label-group text" transform="translate(-67.46875, -39)"><g class="label" style="font-weight: bolder" transform="translate(0,-12)"><foreignObject width="134.9375" height="24"><div xmlns="http://www.w3.org/1999/xhtml" style="display: table-cell; white-space: nowrap; line-height: 1.5; max-width: 169px; text-align: center;"><span class="nodeLabel markdown-node-label" style=""><p>LotteryRepository</p></span></div></foreignObject></g></g><g class="members-group text" transform="translate(-153.796875, 9)"/><g class="methods-group text" transform="translate(-153.796875, 39)"><g class="label" style="" transform="translate(0,-12)"><foreignObject width="240.125" height="24"><div xmlns="http://www.w3.org/1999/xhtml" style="display: table-cell; white-space: nowrap; line-height: 1.5; max-width: 281px; text-align: center;"><span class="nodeLabel markdown-node-label" style=""><p>+findByEventId(EventId) : Lottery</p></span></div></foreignObject></g><g class="label" style="" transform="translate(0,12)"><foreignObject width="149.21875" height="24"><div xmlns="http://www.w3.org/1999/xhtml" style="display: table-cell; white-space: nowrap; line-height: 1.5; max-width: 193px; text-align: center;"><span class="nodeLabel markdown-node-label" style=""><p>+save(Lottery) : void</p></span></div></foreignObject></g></g><g class="divider" style=""><path d="M-165.796875 -15 C-99.35725677554794 -14.999799635493057, -32.91763855109588 -14.999599270986112, 165.796875 -14.999 M-165.796875 -15 C-68.98607453321286 -14.99970804395298, 27.824725933574285 -14.999416087905958, 165.796875 -14.999" stroke="#9370DB" stroke-width="1.3" fill="none" stroke-dasharray="0 0" style=""/></g><g class="divider" style=""><path d="M-165.796875 9 C-92.98424421097192 9.000219583845562, -20.171613421943846 9.000439167691122, 165.796875 9.001 M-165.796875 9 C-45.53870144831092 9.000362667190053, 74.71947210337817 9.000725334380105, 165.796875 9.001" stroke="#9370DB" stroke-width="1.3" fill="none" stroke-dasharray="0 0" style=""/></g></g><g class="node default" id="my-svg-classId-Event-4" data-look="classic" transform="translate(1172.859375, 534)"><g class="basic label-container outer-path"><path d="M-33.265625 -42 L33.265625 -42 L33.265625 42 L-33.265625 42" stroke="none" stroke-width="0" fill="#ECECFF" style=""/><path d="M-33.265625 -42 C-6.691323017577979 -42, 19.882978964844042 -42, 33.265625 -42 M-33.265625 -42 C-10.364822462804423 -42, 12.535980074391155 -42, 33.265625 -42 M33.265625 -42 C33.265625 -25.018064955626265, 33.265625 -8.03612991125253, 33.265625 42 M33.265625 -42 C33.265625 -12.95584358249862, 33.265625 16.08831283500276, 33.265625 42 M33.265625 42 C8.782823634512578 42, -15.699977730974844 42, -33.265625 42 M33.265625 42 C10.774316547209708 42, -11.716991905580585 42, -33.265625 42 M-33.265625 42 C-33.265625 24.086828492716784, -33.265625 6.173656985433567, -33.265625 -42 M-33.265625 42 C-33.265625 22.00300558054776, -33.265625 2.006011161095522, -33.265625 -42" stroke="#9370DB" stroke-width="1.3" fill="none" stroke-dasharray="0 0" style=""/></g><g class="annotation-group text" transform="translate(0, -18)"/><g class="label-group text" transform="translate(-21.265625, -18)"><g class="label" style="font-weight: bolder" transform="translate(0,-12)"><foreignObject width="42.53125" height="24"><div xmlns="http://www.w3.org/1999/xhtml" style="display: table-cell; white-space: nowrap; line-height: 1.5; max-width: 89px; text-align: center;"><span class="nodeLabel markdown-node-label" style=""><p>Event</p></span></div></foreignObject></g></g><g class="members-group text" transform="translate(-21.265625, 30)"/><g class="methods-group text" transform="translate(-21.265625, 60)"/><g class="divider" style=""><path d="M-33.265625 6 C-17.481309799707788 6.0002372466352325, -1.6969945994155715 6.000474493270464, 33.265625 6.001 M-33.265625 6 C-12.681839260380318 6.000309385224832, 7.901946479239363 6.000618770449664, 33.265625 6.001" stroke="#9370DB" stroke-width="1.3" fill="none" stroke-dasharray="0 0" style=""/></g><g class="divider" style=""><path d="M-33.265625 24 C-16.757250311907463 24.00024812963364, -0.248875623814925 24.00049625926728, 33.265625 24.001 M-33.265625 24 C-6.703042107032065 24.000399249719386, 19.85954078593587 24.000798499438776, 33.265625 24.001" stroke="#9370DB" stroke-width="1.3" fill="none" stroke-dasharray="0 0" style=""/></g></g><g class="node default" id="my-svg-classId-Member-5" data-look="classic" transform="translate(1172.859375, 668)"><g class="basic label-container outer-path"><path d="M-42.1015625 -42 L42.1015625 -42 L42.1015625 42 L-42.1015625 42" stroke="none" stroke-width="0" fill="#ECECFF" style=""/><path d="M-42.1015625 -42 C-21.548960818802108 -42, -0.996359137604216 -42, 42.1015625 -42 M-42.1015625 -42 C-10.560820084522266 -42, 20.979922330955468 -42, 42.1015625 -42 M42.1015625 -42 C42.1015625 -19.69255709889171, 42.1015625 2.614885802216577, 42.1015625 42 M42.1015625 -42 C42.1015625 -11.216889728559963, 42.1015625 19.566220542880075, 42.1015625 42 M42.1015625 42 C20.827806240511972 42, -0.44595001897605613 42, -42.1015625 42 M42.1015625 42 C23.19555881923206 42, 4.289555138464117 42, -42.1015625 42 M-42.1015625 42 C-42.1015625 12.908947387664881, -42.1015625 -16.182105224670238, -42.1015625 -42 M-42.1015625 42 C-42.1015625 15.137496905483907, -42.1015625 -11.725006189032186, -42.1015625 -42" stroke="#9370DB" stroke-width="1.3" fill="none" stroke-dasharray="0 0" style=""/></g><g class="annotation-group text" transform="translate(0, -18)"/><g class="label-group text" transform="translate(-30.1015625, -18)"><g class="label" style="font-weight: bolder" transform="translate(0,-12)"><foreignObject width="60.203125" height="24"><div xmlns="http://www.w3.org/1999/xhtml" style="display: table-cell; white-space: nowrap; line-height: 1.5; max-width: 106px; text-align: center;"><span class="nodeLabel markdown-node-label" style=""><p>Member</p></span></div></foreignObject></g></g><g class="members-group text" transform="translate(-30.1015625, 30)"/><g class="methods-group text" transform="translate(-30.1015625, 60)"/><g class="divider" style=""><path d="M-42.1015625 6 C-21.79106217406695 6.000241208391327, -1.4805618481339025 6.000482416782654, 42.1015625 6.001 M-42.1015625 6 C-12.43060850448969 6.0003523735490285, 17.24034549102062 6.000704747098056, 42.1015625 6.001" stroke="#9370DB" stroke-width="1.3" fill="none" stroke-dasharray="0 0" style=""/></g><g class="divider" style=""><path d="M-42.1015625 24 C-17.18483486600897 24.00029591214856, 7.73189276798206 24.000591824297114, 42.1015625 24.001 M-42.1015625 24 C-16.080996194805632 24.000309021384957, 9.939570110388736 24.000618042769915, 42.1015625 24.001" stroke="#9370DB" stroke-width="1.3" fill="none" stroke-dasharray="0 0" style=""/></g></g></g></g></g><defs><filter id="my-svg-drop-shadow" height="130%" width="130%"><feDropShadow dx="4" dy="4" stdDeviation="0" flood-opacity="0.06" flood-color="#000000"/></filter></defs><defs><filter id="my-svg-drop-shadow-small" height="150%" width="150%"><feDropShadow dx="2" dy="2" stdDeviation="0" flood-opacity="0.06" flood-color="#000000"/></filter></defs></svg>