<svg id="my-svg" width="100%" xmlns="http://www.w3.org/2000/svg" xmlns:xlink="http://www.w3.org/1999/xlink" style="max-width: 3209.69px; background-color: white;" viewBox="-8 -8 3209.69140625 1579.2467041015625" role="graphics-document document" aria-roledescription="flowchart-v2"><style>#my-svg{font-family:"trebuchet ms",verdana,arial,sans-serif;font-size:16px;fill:#333;}#my-svg .error-icon{fill:#552222;}#my-svg .error-text{fill:#552222;stroke:#552222;}#my-svg .edge-thickness-normal{stroke-width:2px;}#my-svg .edge-thickness-thick{stroke-width:3.5px;}#my-svg .edge-pattern-solid{stroke-dasharray:0;}#my-svg .edge-pattern-dashed{stroke-dasharray:3;}#my-svg .edge-pattern-dotted{stroke-dasharray:2;}#my-svg .marker{fill:#333333;stroke:#333333;}#my-svg .marker.cross{stroke:#333333;}#my-svg svg{font-family:"trebuchet ms",verdana,arial,sans-serif;font-size:16px;}#my-svg .label{font-family:"trebuchet ms",verdana,arial,sans-serif;color:#333;}#my-svg .cluster-label text{fill:#333;}#my-svg .cluster-label span,#my-svg p{color:#333;}#my-svg .label text,#my-svg span,#my-svg p{fill:#333;color:#333;}#my-svg .node rect,#my-svg .node circle,#my-svg .node ellipse,#my-svg .node polygon,#my-svg .node path{fill:#ECECFF;stroke:#9370DB;stroke-width:1px;}#my-svg .flowchart-label text{text-anchor:middle;}#my-svg .node .katex path{fill:#000;stroke:#000;stroke-width:1px;}#my-svg .node .label{text-align:center;}#my-svg .node.clickable{cursor:pointer;}#my-svg .arrowheadPath{fill:#333333;}#my-svg .edgePath .path{stroke:#333333;stroke-width:2.0px;}#my-svg .flowchart-link{stroke:#333333;fill:none;}#my-svg .edgeLabel{background-color:#e8e8e8;text-align:center;}#my-svg .edgeLabel rect{opacity:0.5;background-color:#e8e8e8;fill:#e8e8e8;}#my-svg .labelBkg{background-color:rgba(232, 232, 232, 0.5);}#my-svg .cluster rect{fill:#ffffde;stroke:#aaaa33;stroke-width:1px;}#my-svg .cluster text{fill:#333;}#my-svg .cluster span,#my-svg p{color:#333;}#my-svg div.mermaidTooltip{position:absolute;text-align:center;max-width:200px;padding:2px;font-family:"trebuchet ms",verdana,arial,sans-serif;font-size:12px;background:hsl(80, 100%, 96.2745098039%);border:1px solid #aaaa33;border-radius:2px;pointer-events:none;z-index:100;}#my-svg .flowchartTitleText{text-anchor:middle;font-size:18px;fill:#333;}#my-svg :root{--mermaid-font-family:"trebuchet ms",verdana,arial,sans-serif;}#my-svg .client&gt;*{fill:rgb(144, 202, 249)!important;stroke:rgb(21, 101, 192)!important;color:rgb(13, 39, 66)!important;font-weight:bold!important;}#my-svg .client span{fill:rgb(144, 202, 249)!important;stroke:rgb(21, 101, 192)!important;color:rgb(13, 39, 66)!important;font-weight:bold!important;}#my-svg .client tspan{fill:rgb(13, 39, 66)!important;}#my-svg .comm&gt;*{fill:rgb(255, 204, 128)!important;stroke:rgb(239, 108, 0)!important;color:rgb(58, 36, 0)!important;font-weight:bold!important;}#my-svg .comm span{fill:rgb(255, 204, 128)!important;stroke:rgb(239, 108, 0)!important;color:rgb(58, 36, 0)!important;font-weight:bold!important;}#my-svg .comm tspan{fill:rgb(58, 36, 0)!important;}#my-svg .app&gt;*{fill:rgb(74, 144, 217)!important;stroke:rgb(44, 95, 138)!important;color:rgb(255, 255, 255)!important;font-weight:bold!important;}#my-svg .app span{fill:rgb(74, 144, 217)!important;stroke:rgb(44, 95, 138)!important;color:rgb(255, 255, 255)!important;font-weight:bold!important;}#my-svg .app tspan{fill:rgb(255, 255, 255)!important;}#my-svg .domain&gt;*{fill:rgb(126, 211, 33)!important;stroke:rgb(90, 154, 24)!important;color:rgb(22, 50, 10)!important;font-weight:bold!important;}#my-svg .domain span{fill:rgb(126, 211, 33)!important;stroke:rgb(90, 154, 24)!important;color:rgb(22, 50, 10)!important;font-weight:bold!important;}#my-svg .domain tspan{fill:rgb(22, 50, 10)!important;}#my-svg .infra&gt;*{fill:rgb(224, 112, 112)!important;stroke:rgb(192, 57, 43)!important;color:rgb(255, 255, 255)!important;font-weight:bold!important;}#my-svg .infra span{fill:rgb(224, 112, 112)!important;stroke:rgb(192, 57, 43)!important;color:rgb(255, 255, 255)!important;font-weight:bold!important;}#my-svg .infra tspan{fill:rgb(255, 255, 255)!important;}#my-svg .orm&gt;*{fill:rgb(179, 157, 219)!important;stroke:rgb(94, 53, 177)!important;color:rgb(28, 16, 51)!important;font-weight:bold!important;}#my-svg .orm span{fill:rgb(179, 157, 219)!important;stroke:rgb(94, 53, 177)!important;color:rgb(28, 16, 51)!important;font-weight:bold!important;}#my-svg .orm tspan{fill:rgb(28, 16, 51)!important;}#my-svg .db&gt;*{fill:rgb(55, 71, 79)!important;stroke:rgb(0, 0, 0)!important;color:rgb(255, 255, 255)!important;font-weight:bold!important;}#my-svg .db span{fill:rgb(55, 71, 79)!important;stroke:rgb(0, 0, 0)!important;color:rgb(255, 255, 255)!important;font-weight:bold!important;}#my-svg .db tspan{fill:rgb(255, 255, 255)!important;}#my-svg .ext&gt;*{fill:rgb(245, 166, 35)!important;stroke:rgb(196, 125, 26)!important;color:rgb(51, 36, 10)!important;font-weight:bold!important;}#my-svg .ext span{fill:rgb(245, 166, 35)!important;stroke:rgb(196, 125, 26)!important;color:rgb(51, 36, 10)!important;font-weight:bold!important;}#my-svg .ext tspan{fill:rgb(51, 36, 10)!important;}#my-svg .cfg&gt;*{fill:rgb(248, 231, 28)!important;stroke:rgb(197, 178, 0)!important;color:rgb(51, 51, 51)!important;font-weight:bold!important;}#my-svg .cfg span{fill:rgb(248, 231, 28)!important;stroke:rgb(197, 178, 0)!important;color:rgb(51, 51, 51)!important;font-weight:bold!important;}#my-svg .cfg tspan{fill:rgb(51, 51, 51)!important;}</style><g><marker id="my-svg_flowchart-pointEnd" class="marker flowchart" viewBox="0 0 10 10" refX="6" refY="5" markerUnits="userSpaceOnUse" markerWidth="12" markerHeight="12" orient="auto"><path d="M 0 0 L 10 5 L 0 10 z" class="arrowMarkerPath" style="stroke-width: 1; stroke-dasharray: 1, 0;"/></marker><marker id="my-svg_flowchart-pointStart" class="marker flowchart" viewBox="0 0 10 10" refX="4.5" refY="5" markerUnits="userSpaceOnUse" markerWidth="12" markerHeight="12" orient="auto"><path d="M 0 5 L 10 10 L 10 0 z" class="arrowMarkerPath" style="stroke-width: 1; stroke-dasharray: 1, 0;"/></marker><marker id="my-svg_flowchart-circleEnd" class="marker flowchart" viewBox="0 0 10 10" refX="11" refY="5" markerUnits="userSpaceOnUse" markerWidth="11" markerHeight="11" orient="auto"><circle cx="5" cy="5" r="5" class="arrowMarkerPath" style="stroke-width: 1; stroke-dasharray: 1, 0;"/></marker><marker id="my-svg_flowchart-circleStart" class="marker flowchart" viewBox="0 0 10 10" refX="-1" refY="5" markerUnits="userSpaceOnUse" markerWidth="11" markerHeight="11" orient="auto"><circle cx="5" cy="5" r="5" class="arrowMarkerPath" style="stroke-width: 1; stroke-dasharray: 1, 0;"/></marker><marker id="my-svg_flowchart-crossEnd" class="marker cross flowchart" viewBox="0 0 11 11" refX="12" refY="5.2" markerUnits="userSpaceOnUse" markerWidth="11" markerHeight="11" orient="auto"><path d="M 1,1 l 9,9 M 10,1 l -9,9" class="arrowMarkerPath" style="stroke-width: 2; stroke-dasharray: 1, 0;"/></marker><marker id="my-svg_flowchart-crossStart" class="marker cross flowchart" viewBox="0 0 11 11" refX="-1" refY="5.2" markerUnits="userSpaceOnUse" markerWidth="11" markerHeight="11" orient="auto"><path d="M 1,1 l 9,9 M 10,1 l -9,9" class="arrowMarkerPath" style="stroke-width: 2; stroke-dasharray: 1, 0;"/></marker><g class="root"><g class="clusters"><g class="cluster default flowchart-label" id="DBLAYER"><rect style="" rx="0" ry="0" x="371.30859375" y="1392" width="309.03125" height="171.24671936035156"/><g class="cluster-label" transform="translate(477.61328125, 1392)"><foreignObject width="96.421875" height="21"><div xmlns="http://www.w3.org/1999/xhtml" style="display: inline-block; white-space: nowrap;"><span class="nodeLabel">⬛ DATABASE</span></div></foreignObject></g></g><g class="cluster default flowchart-label" id="ORM"><rect style="" rx="0" ry="0" x="304.87109375" y="939" width="441.90625" height="384"/><g class="cluster-label" transform="translate(313.12109375, 939)"><foreignObject width="425.40625" height="21"><div xmlns="http://www.w3.org/1999/xhtml" style="display: inline-block; white-space: nowrap;"><span class="nodeLabel">🟣 ORM — Data-Access Layer (Spring Data JPA + Hibernate)</span></div></foreignObject></g></g><g class="cluster default flowchart-label" id="INFRA"><rect style="" rx="0" ry="0" x="818.3125" y="0" width="1554.55859375" height="1176"/><g class="cluster-label" transform="translate(1519.396484375, 0)"><foreignObject width="152.390625" height="21"><div xmlns="http://www.w3.org/1999/xhtml" style="display: inline-block; white-space: nowrap;"><span class="nodeLabel">🔴 INFRASTRUCTURE</span></div></foreignObject></g></g><g class="cluster default flowchart-label" id="DOMAIN"><rect style="" rx="0" ry="0" x="0" y="729" width="798.3125" height="141"/><g class="cluster-label" transform="translate(357.734375, 729)"><foreignObject width="82.84375" height="21"><div xmlns="http://www.w3.org/1999/xhtml" style="display: inline-block; white-space: nowrap;"><span class="nodeLabel">🟢 DOMAIN</span></div></foreignObject></g></g><g class="cluster default flowchart-label" id="APP"><rect style="" rx="0" ry="0" x="2464.53125" y="563" width="466.15625" height="307"/><g class="cluster-label" transform="translate(2638.640625, 563)"><foreignObject width="117.9375" height="21"><div xmlns="http://www.w3.org/1999/xhtml" style="display: inline-block; white-space: nowrap;"><span class="nodeLabel">🔵 APPLICATION</span></div></foreignObject></g></g><g class="cluster default flowchart-label" id="CLIENT"><rect style="" rx="0" ry="0" x="2477.07421875" y="0" width="489.171875" height="109"/><g class="cluster-label" transform="translate(2683.16796875, 0)"><foreignObject width="76.984375" height="21"><div xmlns="http://www.w3.org/1999/xhtml" style="display: inline-block; white-space: nowrap;"><span class="nodeLabel">🟦 CLIENT</span></div></foreignObject></g></g><g class="cluster default flowchart-label" id="INIT"><rect style="" rx="0" ry="0" x="1152.71875" y="25" width="1200.15234375" height="469"/><g class="cluster-label" transform="translate(1649.310546875, 25)"><foreignObject width="206.96875" height="21"><div xmlns="http://www.w3.org/1999/xhtml" style="display: inline-block; white-space: nowrap;"><span class="nodeLabel">⚙️ System Initialization (V3)</span></div></foreignObject></g></g><g class="cluster default flowchart-label" id="WSEPADAP"><rect style="" rx="0" ry="0" x="1350.73046875" y="964" width="842.5859375" height="187"/><g class="cluster-label" transform="translate(1646.6796875, 964)"><foreignObject width="250.6875" height="21"><div xmlns="http://www.w3.org/1999/xhtml" style="display: inline-block; white-space: nowrap;"><span class="nodeLabel">🌐 External HTTP Adapters (WSEP)</span></div></foreignObject></g></g></g><g class="edgePaths"><path d="M2618.883,660L2607.905,665.75C2596.928,671.5,2574.974,683,2563.997,694.5C2553.02,706,2553.02,717.5,2191.714,734.11C1830.409,750.719,1107.799,772.438,746.493,783.298L385.188,794.158" id="L-Services-Aggregates-0" class="edge-thickness-normal edge-pattern-solid flowchart-link LS-Services LE-Aggregates" style="fill:none;" marker-end="url(#my-svg_flowchart-pointEnd)"/><path d="M2692.716,660L2693.531,665.75C2694.347,671.5,2695.978,683,2696.794,694.5C2697.609,706,2697.609,717.5,2697.609,728.117C2697.609,738.733,2697.609,748.467,2697.609,753.333L2697.609,758.2" id="L-Services-Ports-0" class="edge-thickness-normal edge-pattern-solid flowchart-link LS-Services LE-Ports" style="fill:none;" marker-end="url(#my-svg_flowchart-pointEnd)"/><path d="M2673.286,660L2670.998,665.75C2668.71,671.5,2664.134,683,2661.846,694.5C2659.559,706,2659.559,717.5,2344.4,734.02C2029.242,750.541,1398.926,772.081,1083.768,782.851L768.609,793.622" id="L-Services-RepoPorts-0" class="edge-thickness-normal edge-pattern-solid flowchart-link LS-Services LE-RepoPorts" style="fill:none;" marker-end="url(#my-svg_flowchart-pointEnd)"/><path d="M1015.307,469L1022.608,473.167C1029.91,477.333,1044.514,485.667,1065.965,495.583C1087.415,505.5,1115.714,517,1129.863,528.5C1144.012,540,1144.012,551.5,1375.929,566.415C1607.847,581.33,2071.682,599.66,2303.599,608.825L2535.517,617.99" id="L-AppConfig-Services-0" class="edge-thickness-normal edge-pattern-solid flowchart-link LS-AppConfig LE-Services" style="fill:none;" marker-end="url(#my-svg_flowchart-pointEnd)"/><path d="M961.07,469L955.079,473.167C949.087,477.333,937.104,485.667,931.113,495.583C925.121,505.5,925.121,517,925.121,528.5C925.121,540,925.121,551.5,925.121,567.417C925.121,583.333,925.121,603.667,925.121,625.583C925.121,647.5,925.121,671,925.121,688.5C925.121,706,925.121,717.5,925.121,735C925.121,752.5,925.121,776,925.121,799.5C925.121,823,925.121,846.5,925.121,864C925.121,881.5,925.121,893,925.121,904.5C925.121,916,925.121,927.5,925.121,937.417C925.121,947.333,925.121,955.667,883.767,965.167C842.412,974.668,759.704,985.335,718.349,990.669L676.995,996.003" id="L-AppConfig-Adapters-0" class="edge-thickness-normal edge-pattern-solid flowchart-link LS-AppConfig LE-Adapters" style="fill:none;" marker-end="url(#my-svg_flowchart-pointEnd)"/><path d="M1385.446,298.5L1404.088,315.5C1422.73,332.5,1460.013,366.5,1478.655,388.367C1497.297,410.233,1497.297,419.967,1497.297,424.833L1497.297,429.7" id="L-ConfigFile-BootRunner-0" class="edge-thickness-normal edge-pattern-solid flowchart-link LS-ConfigFile LE-BootRunner" style="fill:none;" marker-end="url(#my-svg_flowchart-pointEnd)"/><path d="M1497.297,469L1497.297,473.167C1497.297,477.333,1497.297,485.667,1497.297,495.583C1497.297,505.5,1497.297,517,1497.297,528.5C1497.297,540,1497.297,551.5,1670.334,566.118C1843.371,580.735,2189.445,598.471,2362.482,607.338L2535.519,616.206" id="L-BootRunner-Services-0" class="edge-thickness-normal edge-pattern-solid flowchart-link LS-BootRunner LE-Services" style="fill:none;" marker-end="url(#my-svg_flowchart-pointEnd)"/><path d="M2079.379,84L2093.35,88.167C2107.32,92.333,2135.262,100.667,2149.232,110.583C2163.203,120.5,2163.203,132,2163.203,155.45C2163.203,178.9,2163.203,214.3,2163.203,232L2163.203,249.7" id="L-InitRunner-StateFile-0" class="edge-thickness-normal edge-pattern-solid flowchart-link LS-InitRunner LE-StateFile" style="fill:none;" marker-end="url(#my-svg_flowchart-pointEnd)"/><path d="M1987.309,84L1978.713,88.167C1970.117,92.333,1952.926,100.667,1944.33,110.583C1935.734,120.5,1935.734,132,1935.734,155.45C1935.734,178.9,1935.734,214.3,1935.734,232L1935.734,249.7" id="L-InitRunner-StateParser-0" class="edge-thickness-normal edge-pattern-solid flowchart-link LS-InitRunner LE-StateParser" style="fill:none;" marker-end="url(#my-svg_flowchart-pointEnd)"/><path d="M1935.734,289L1935.734,307.583C1935.734,326.167,1935.734,363.333,1935.734,386.783C1935.734,410.233,1935.734,419.967,1935.734,424.833L1935.734,429.7" id="L-StateParser-InitProc-0" class="edge-thickness-normal edge-pattern-solid flowchart-link LS-StateParser LE-InitProc" style="fill:none;" marker-end="url(#my-svg_flowchart-pointEnd)"/><path d="M1935.734,469L1935.734,473.167C1935.734,477.333,1935.734,485.667,1935.734,495.583C1935.734,505.5,1935.734,517,1935.734,528.5C1935.734,540,1935.734,551.5,2035.7,565.36C2135.666,579.221,2335.598,595.441,2435.564,603.551L2535.53,611.662" id="L-InitProc-Services-0" class="edge-thickness-normal edge-pattern-solid flowchart-link LS-InitProc LE-Services" style="fill:none;" marker-end="url(#my-svg_flowchart-pointEnd)"/><path d="M596.602,826L596.602,833.333C596.602,840.667,596.602,855.333,596.602,868.417C596.602,881.5,596.602,893,596.602,904.5C596.602,916,596.602,927.5,596.602,937.417C596.602,947.333,596.602,955.667,591.59,963.48C586.577,971.294,576.553,978.588,571.541,982.235L566.529,985.882" id="L-RepoPorts-Adapters-0" class="edge-thickness-normal edge-pattern-dotted flowchart-link LS-RepoPorts LE-Adapters" style="fill:none;stroke-width:2px;stroke-dasharray:3;" marker-end="url(#my-svg_flowchart-pointEnd)"/><path d="M525.824,1042L525.824,1046.167C525.824,1050.333,525.824,1058.667,525.824,1066.117C525.824,1073.567,525.824,1080.133,525.824,1083.417L525.824,1086.7" id="L-Adapters-SpringData-0" class="edge-thickness-normal edge-pattern-solid flowchart-link LS-Adapters LE-SpringData" style="fill:none;" marker-end="url(#my-svg_flowchart-pointEnd)"/><path d="M525.824,1126L525.824,1130.167C525.824,1134.333,525.824,1142.667,525.824,1151C525.824,1159.333,525.824,1167.667,525.824,1177.583C525.824,1187.5,525.824,1199,525.824,1211.2C525.824,1223.4,525.824,1236.3,525.824,1242.75L525.824,1249.2" id="L-SpringData-Cache-0" class="edge-thickness-normal edge-pattern-solid flowchart-link LS-SpringData LE-Cache" style="fill:none;" marker-end="url(#my-svg_flowchart-pointEnd)"/><path d="M525.824,1288.5L525.824,1294.25C525.824,1300,525.824,1311.5,525.824,1323C525.824,1334.5,525.824,1346,525.824,1357.5C525.824,1369,525.824,1380.5,525.824,1389.533C525.824,1398.567,525.824,1405.133,525.824,1408.417L525.824,1411.7" id="L-Cache-PG-0" class="edge-thickness-normal edge-pattern-solid flowchart-link LS-Cache LE-PG" style="fill:none;" marker-end="url(#my-svg_flowchart-pointEnd)"/><path d="M2639.095,835.5L2629.749,841.25C2620.403,847,2601.711,858.5,2412.52,870C2223.329,881.5,1863.639,893,1683.794,904.5C1503.949,916,1503.949,927.5,1503.949,937.417C1503.949,947.333,1503.949,955.667,1503.949,964.7C1503.949,973.733,1503.949,983.467,1503.949,988.333L1503.949,993.2" id="L-Ports-PayAdapter-0" class="edge-thickness-normal edge-pattern-dotted flowchart-link LS-Ports LE-PayAdapter" style="fill:none;stroke-width:2px;stroke-dasharray:3;" marker-end="url(#my-svg_flowchart-pointEnd)"/><path d="M2737.688,835.5L2744.09,841.25C2750.492,847,2763.295,858.5,2603.799,870C2444.303,881.5,2112.509,893,1946.612,904.5C1780.715,916,1780.715,927.5,1780.715,937.417C1780.715,947.333,1780.715,955.667,1780.715,964.7C1780.715,973.733,1780.715,983.467,1780.715,988.333L1780.715,993.2" id="L-Ports-IssAdapter-0" class="edge-thickness-normal edge-pattern-dotted flowchart-link LS-Ports LE-IssAdapter" style="fill:none;stroke-width:2px;stroke-dasharray:3;" marker-end="url(#my-svg_flowchart-pointEnd)"/><path d="M2747.901,835.5L2755.934,841.25C2763.967,847,2780.032,858.5,2660.433,870C2540.835,881.5,2285.572,893,2157.94,904.5C2030.309,916,2030.309,927.5,2030.309,937.417C2030.309,947.333,2030.309,955.667,2030.309,964.7C2030.309,973.733,2030.309,983.467,2030.309,988.333L2030.309,993.2" id="L-Ports-AvailClient-0" class="edge-thickness-normal edge-pattern-dotted flowchart-link LS-Ports LE-AvailClient" style="fill:none;stroke-width:2px;stroke-dasharray:3;" marker-end="url(#my-svg_flowchart-pointEnd)"/><path d="M1503.949,1032.5L1503.949,1038.25C1503.949,1044,1503.949,1055.5,1539.308,1065.316C1574.667,1075.132,1645.384,1083.263,1680.743,1087.329L1716.102,1091.395" id="L-PayAdapter-HttpClient-0" class="edge-thickness-normal edge-pattern-solid flowchart-link LS-PayAdapter LE-HttpClient" style="fill:none;" marker-end="url(#my-svg_flowchart-pointEnd)"/><path d="M1780.715,1032.5L1780.715,1038.25C1780.715,1044,1780.715,1055.5,1788.696,1065.038C1796.678,1074.576,1812.64,1082.152,1820.622,1085.94L1828.603,1089.728" id="L-IssAdapter-HttpClient-0" class="edge-thickness-normal edge-pattern-solid flowchart-link LS-IssAdapter LE-HttpClient" style="fill:none;" marker-end="url(#my-svg_flowchart-pointEnd)"/><path d="M2030.309,1032.5L2030.309,1038.25C2030.309,1044,2030.309,1055.5,2015.181,1065.194C2000.054,1074.888,1969.8,1082.775,1954.673,1086.719L1939.546,1090.663" id="L-AvailClient-HttpClient-0" class="edge-thickness-normal edge-pattern-solid flowchart-link LS-AvailClient LE-HttpClient" style="fill:none;" marker-end="url(#my-svg_flowchart-pointEnd)"/><path d="M1869.211,1126L1869.211,1130.167C1869.211,1134.333,1869.211,1142.667,1869.211,1151C1869.211,1159.333,1869.211,1167.667,1869.211,1177.583C1869.211,1187.5,1869.211,1199,1869.211,1209.617C1869.211,1220.233,1869.211,1229.967,1869.211,1234.833L1869.211,1239.7" id="L-HttpClient-WSEP-0" class="edge-thickness-normal edge-pattern-solid flowchart-link LS-HttpClient LE-WSEP" style="fill:none;" marker-end="url(#my-svg_flowchart-pointEnd)"/><path d="M2816.238,84L2816.238,88.167C2816.238,92.333,2816.238,100.667,2816.238,110.583C2816.238,120.5,2816.238,132,2816.238,142.617C2816.238,153.233,2816.238,162.967,2816.238,167.833L2816.238,172.7" id="L-UI-COMM-0" class="edge-thickness-normal edge-pattern-solid flowchart-link LS-UI LE-COMM" style="fill:none;" marker-end="url(#my-svg_flowchart-pointEnd)"/><path d="M2581.652,84L2581.652,88.167C2581.652,92.333,2581.652,100.667,2544.399,109.402C2507.145,118.138,2432.639,127.275,2395.385,131.844L2358.132,136.413" id="L-CLImport-INIT-0" class="edge-thickness-normal edge-pattern-solid flowchart-link LS-CLImport LE-INIT" style="fill:none;" marker-end="url(#my-svg_flowchart-pointEnd)"/><path d="M2816.238,366L2816.238,371.75C2816.238,377.5,2816.238,389,2816.238,403.333C2816.238,417.667,2816.238,434.833,2816.238,450.417C2816.238,466,2816.238,480,2816.238,492.75C2816.238,505.5,2816.238,517,2816.238,527.617C2816.238,538.233,2816.238,547.967,2816.238,552.833L2816.238,557.7" id="L-COMM-APP-0" class="edge-thickness-normal edge-pattern-solid flowchart-link LS-COMM LE-APP" style="fill:none;" marker-end="url(#my-svg_flowchart-pointEnd)"/><path d="M1338.518,298.5L1327.056,315.5C1315.593,332.5,1292.668,366.5,1281.205,392.083C1269.742,417.667,1269.742,434.833,1269.742,450.417C1269.742,466,1269.742,480,1238.549,492.75C1207.357,505.5,1144.971,517,1113.779,528.5C1082.586,540,1082.586,551.5,1082.586,567.417C1082.586,583.333,1082.586,603.667,1082.586,625.583C1082.586,647.5,1082.586,671,1082.586,688.5C1082.586,706,1082.586,717.5,1082.586,735C1082.586,752.5,1082.586,776,1082.586,799.5C1082.586,823,1082.586,846.5,1082.586,864C1082.586,881.5,1082.586,893,1082.586,904.5C1082.586,916,1082.586,927.5,1082.586,937.417C1082.586,947.333,1082.586,955.667,1027.501,960.972C972.416,966.277,862.246,968.554,807.161,969.693L752.076,970.832" id="L-ConfigFile-ORM-0" class="edge-thickness-normal edge-pattern-solid flowchart-link LS-ConfigFile LE-ORM" style="fill:none;" marker-end="url(#my-svg_flowchart-pointEnd)"/></g><g class="edgeLabels"><g class="edgeLabel"><g class="label" transform="translate(0, 0)"><foreignObject width="0" height="0"><div xmlns="http://www.w3.org/1999/xhtml" style="display: inline-block; white-space: nowrap;"><span class="edgeLabel"></span></div></foreignObject></g></g><g class="edgeLabel"><g class="label" transform="translate(0, 0)"><foreignObject width="0" height="0"><div xmlns="http://www.w3.org/1999/xhtml" style="display: inline-block; white-space: nowrap;"><span class="edgeLabel"></span></div></foreignObject></g></g><g class="edgeLabel"><g class="label" transform="translate(0, 0)"><foreignObject width="0" height="0"><div xmlns="http://www.w3.org/1999/xhtml" style="display: inline-block; white-space: nowrap;"><span class="edgeLabel"></span></div></foreignObject></g></g><g class="edgeLabel" transform="translate(1144.01171875, 528.5)"><g class="label" transform="translate(-26.4140625, -9.5)"><foreignObject width="52.828125" height="19"><div xmlns="http://www.w3.org/1999/xhtml" style="display: inline-block; white-space: nowrap;"><span class="edgeLabel">creates</span></div></foreignObject></g></g><g class="edgeLabel" transform="translate(925.12109375, 694.5)"><g class="label" transform="translate(-26.4140625, -9.5)"><foreignObject width="52.828125" height="19"><div xmlns="http://www.w3.org/1999/xhtml" style="display: inline-block; white-space: nowrap;"><span class="edgeLabel">creates</span></div></foreignObject></g></g><g class="edgeLabel" transform="translate(1497.296875, 400.5)"><g class="label" transform="translate(-40.859375, -9.5)"><foreignObject width="81.71875" height="19"><div xmlns="http://www.w3.org/1999/xhtml" style="display: inline-block; white-space: nowrap;"><span class="edgeLabel">parameters</span></div></foreignObject></g></g><g class="edgeLabel" transform="translate(1497.296875, 528.5)"><g class="label" transform="translate(-80.9921875, -9.5)"><foreignObject width="161.984375" height="19"><div xmlns="http://www.w3.org/1999/xhtml" style="display: inline-block; white-space: nowrap;"><span class="edgeLabel">seed admin + platform</span></div></foreignObject></g></g><g class="edgeLabel" transform="translate(2163.203125, 143.5)"><g class="label" transform="translate(-81.6875, -9.5)"><foreignObject width="163.375" height="19"><div xmlns="http://www.w3.org/1999/xhtml" style="display: inline-block; white-space: nowrap;"><span class="edgeLabel">reads path from config</span></div></foreignObject></g></g><g class="edgeLabel"><g class="label" transform="translate(0, 0)"><foreignObject width="0" height="0"><div xmlns="http://www.w3.org/1999/xhtml" style="display: inline-block; white-space: nowrap;"><span class="edgeLabel"></span></div></foreignObject></g></g><g class="edgeLabel"><g class="label" transform="translate(0, 0)"><foreignObject width="0" height="0"><div xmlns="http://www.w3.org/1999/xhtml" style="display: inline-block; white-space: nowrap;"><span class="edgeLabel"></span></div></foreignObject></g></g><g class="edgeLabel" transform="translate(1935.734375, 528.5)"><g class="label" transform="translate(-61.4765625, -9.5)"><foreignObject width="122.953125" height="19"><div xmlns="http://www.w3.org/1999/xhtml" style="display: inline-block; white-space: nowrap;"><span class="edgeLabel">replays use cases</span></div></foreignObject></g></g><g class="edgeLabel" transform="translate(596.6015625, 904.5)"><g class="label" transform="translate(-58.28125, -9.5)"><foreignObject width="116.5625" height="19"><div xmlns="http://www.w3.org/1999/xhtml" style="display: inline-block; white-space: nowrap;"><span class="edgeLabel">implemented by</span></div></foreignObject></g></g><g class="edgeLabel"><g class="label" transform="translate(0, 0)"><foreignObject width="0" height="0"><div xmlns="http://www.w3.org/1999/xhtml" style="display: inline-block; white-space: nowrap;"><span class="edgeLabel"></span></div></foreignObject></g></g><g class="edgeLabel"><g class="label" transform="translate(0, 0)"><foreignObject width="0" height="0"><div xmlns="http://www.w3.org/1999/xhtml" style="display: inline-block; white-space: nowrap;"><span class="edgeLabel"></span></div></foreignObject></g></g><g class="edgeLabel" transform="translate(525.82421875, 1357.5)"><g class="label" transform="translate(-18.03125, -9.5)"><foreignObject width="36.0625" height="19"><div xmlns="http://www.w3.org/1999/xhtml" style="display: inline-block; white-space: nowrap;"><span class="edgeLabel">JDBC</span></div></foreignObject></g></g><g class="edgeLabel" transform="translate(1503.94921875, 904.5)"><g class="label" transform="translate(-58.28125, -9.5)"><foreignObject width="116.5625" height="19"><div xmlns="http://www.w3.org/1999/xhtml" style="display: inline-block; white-space: nowrap;"><span class="edgeLabel">implemented by</span></div></foreignObject></g></g><g class="edgeLabel" transform="translate(1780.71484375, 904.5)"><g class="label" transform="translate(-58.28125, -9.5)"><foreignObject width="116.5625" height="19"><div xmlns="http://www.w3.org/1999/xhtml" style="display: inline-block; white-space: nowrap;"><span class="edgeLabel">implemented by</span></div></foreignObject></g></g><g class="edgeLabel" transform="translate(2030.30859375, 904.5)"><g class="label" transform="translate(-58.28125, -9.5)"><foreignObject width="116.5625" height="19"><div xmlns="http://www.w3.org/1999/xhtml" style="display: inline-block; white-space: nowrap;"><span class="edgeLabel">implemented by</span></div></foreignObject></g></g><g class="edgeLabel"><g class="label" transform="translate(0, 0)"><foreignObject width="0" height="0"><div xmlns="http://www.w3.org/1999/xhtml" style="display: inline-block; white-space: nowrap;"><span class="edgeLabel"></span></div></foreignObject></g></g><g class="edgeLabel"><g class="label" transform="translate(0, 0)"><foreignObject width="0" height="0"><div xmlns="http://www.w3.org/1999/xhtml" style="display: inline-block; white-space: nowrap;"><span class="edgeLabel"></span></div></foreignObject></g></g><g class="edgeLabel"><g class="label" transform="translate(0, 0)"><foreignObject width="0" height="0"><div xmlns="http://www.w3.org/1999/xhtml" style="display: inline-block; white-space: nowrap;"><span class="edgeLabel"></span></div></foreignObject></g></g><g class="edgeLabel" transform="translate(1869.2109375, 1210.5)"><g class="label" transform="translate(-22.8359375, -9.5)"><foreignObject width="45.671875" height="19"><div xmlns="http://www.w3.org/1999/xhtml" style="display: inline-block; white-space: nowrap;"><span class="edgeLabel">HTTPS</span></div></foreignObject></g></g><g class="edgeLabel" transform="translate(2816.23828125, 143.5)"><g class="label" transform="translate(-38.5234375, -9.5)"><foreignObject width="77.046875" height="19"><div xmlns="http://www.w3.org/1999/xhtml" style="display: inline-block; white-space: nowrap;"><span class="edgeLabel">HTTP / WS</span></div></foreignObject></g></g><g class="edgeLabel" transform="translate(2479.66876, 121.50746)"><g class="label" transform="translate(-25.7265625, -9.5)"><foreignObject width="51.453125" height="19"><div xmlns="http://www.w3.org/1999/xhtml" style="display: inline-block; white-space: nowrap;"><span class="edgeLabel">startup</span></div></foreignObject></g></g><g class="edgeLabel"><g class="label" transform="translate(0, 0)"><foreignObject width="0" height="0"><div xmlns="http://www.w3.org/1999/xhtml" style="display: inline-block; white-space: nowrap;"><span class="edgeLabel"></span></div></foreignObject></g></g><g class="edgeLabel" transform="translate(1082.58594, 710.7749)"><g class="label" transform="translate(-50.765625, -9.5)"><foreignObject width="101.53125" height="19"><div xmlns="http://www.w3.org/1999/xhtml" style="display: inline-block; white-space: nowrap;"><span class="edgeLabel">db connection</span></div></foreignObject></g></g></g><g class="nodes"><g class="node default db db flowchart-label" id="flowchart-PG-25" data-node="true" data-id="PG" transform="translate(525.82421875, 1477.6233596801758)"><path style="" d="M 0,16.415572152116063 a 119.515625,16.415572152116063 0,0,0 239.03125 0 a 119.515625,16.415572152116063 0,0,0 -239.03125 0 l 0,88.41557215211606 a 119.515625,16.415572152116063 0,0,0 239.03125 0 l 0,-88.41557215211606" transform="translate(-119.515625,-60.62335822817409)"/><g class="label" style="" transform="translate(-112.015625, -28.5)"><rect/><foreignObject width="224.03125" height="57"><div xmlns="http://www.w3.org/1999/xhtml" style="display: inline-block; white-space: nowrap;"><span class="nodeLabel">PostgreSQL<br />(local H2/Docker for dev/test,<br />Google Cloud SQL for deploy)</span></div></foreignObject></g></g><g class="node default orm flowchart-label" id="flowchart-Adapters-22" data-node="true" data-id="Adapters" transform="translate(525.82421875, 1015.5)"><rect class="basic label-container" style="" rx="0" ry="0" x="-145.9140625" y="-26.5" width="291.828125" height="53"/><g class="label" style="" transform="translate(-138.4140625, -19)"><rect/><foreignObject width="276.828125" height="38"><div xmlns="http://www.w3.org/1999/xhtml" style="display: inline-block; white-space: nowrap;"><span class="nodeLabel">Postgres*Repository adapters<br />(implement domain repository ports)</span></div></foreignObject></g></g><g class="node default orm flowchart-label" id="flowchart-SpringData-23" data-node="true" data-id="SpringData" transform="translate(525.82421875, 1109)"><rect class="basic label-container" style="" rx="0" ry="0" x="-152.3359375" y="-17" width="304.671875" height="34"/><g class="label" style="" transform="translate(-144.8359375, -9.5)"><rect/><foreignObject width="289.671875" height="19"><div xmlns="http://www.w3.org/1999/xhtml" style="display: inline-block; white-space: nowrap;"><span class="nodeLabel">SpringData*Repository (JpaRepository)</span></div></foreignObject></g></g><g class="node default orm flowchart-label" id="flowchart-Cache-24" data-node="true" data-id="Cache" transform="translate(525.82421875, 1271.5)"><rect class="basic label-container" style="" rx="0" ry="0" x="-185.953125" y="-17" width="371.90625" height="34"/><g class="label" style="" transform="translate(-178.453125, -9.5)"><rect/><foreignObject width="356.90625" height="19"><div xmlns="http://www.w3.org/1999/xhtml" style="display: inline-block; white-space: nowrap;"><span class="nodeLabel">Hibernate 1st-level cache / persistence context</span></div></foreignObject></g></g><g class="node default infra flowchart-label" id="flowchart-AppConfig-11" data-node="true" data-id="AppConfig" transform="translate(985.515625, 452)"><rect class="basic label-container" style="" rx="0" ry="0" x="-132.203125" y="-17" width="264.40625" height="34"/><g class="label" style="" transform="translate(-124.703125, -9.5)"><rect/><foreignObject width="249.40625" height="19"><div xmlns="http://www.w3.org/1999/xhtml" style="display: inline-block; white-space: nowrap;"><span class="nodeLabel">AppConfig (Spring beans / wiring)</span></div></foreignObject></g></g><g class="node default ext flowchart-label" id="flowchart-HttpClient-18" data-node="true" data-id="HttpClient" transform="translate(1869.2109375, 1109)"><rect class="basic label-container" style="" rx="0" ry="0" x="-164.96875" y="-17" width="329.9375" height="34"/><g class="label" style="" transform="translate(-157.46875, -9.5)"><rect/><foreignObject width="314.9375" height="19"><div xmlns="http://www.w3.org/1999/xhtml" style="display: inline-block; white-space: nowrap;"><span class="nodeLabel">WsepHttpClient (java.net.http HttpClient)</span></div></foreignObject></g></g><g class="node default ext flowchart-label" id="flowchart-PayAdapter-19" data-node="true" data-id="PayAdapter" transform="translate(1503.94921875, 1015.5)"><rect class="basic label-container" style="" rx="0" ry="0" x="-118.21875" y="-17" width="236.4375" height="34"/><g class="label" style="" transform="translate(-110.71875, -9.5)"><rect/><foreignObject width="221.4375" height="19"><div xmlns="http://www.w3.org/1999/xhtml" style="display: inline-block; white-space: nowrap;"><span class="nodeLabel">PaymentGatewayHttpAdapter</span></div></foreignObject></g></g><g class="node default ext flowchart-label" id="flowchart-IssAdapter-20" data-node="true" data-id="IssAdapter" transform="translate(1780.71484375, 1015.5)"><rect class="basic label-container" style="" rx="0" ry="0" x="-108.546875" y="-17" width="217.09375" height="34"/><g class="label" style="" transform="translate(-101.046875, -9.5)"><rect/><foreignObject width="202.09375" height="19"><div xmlns="http://www.w3.org/1999/xhtml" style="display: inline-block; white-space: nowrap;"><span class="nodeLabel">TicketIssuanceHttpAdapter</span></div></foreignObject></g></g><g class="node default ext flowchart-label" id="flowchart-AvailClient-21" data-node="true" data-id="AvailClient" transform="translate(2030.30859375, 1015.5)"><rect class="basic label-container" style="" rx="0" ry="0" x="-91.046875" y="-17" width="182.09375" height="34"/><g class="label" style="" transform="translate(-83.546875, -9.5)"><rect/><foreignObject width="167.09375" height="19"><div xmlns="http://www.w3.org/1999/xhtml" style="display: inline-block; white-space: nowrap;"><span class="nodeLabel">WsepAvailabilityClient</span></div></foreignObject></g></g><g class="node default cfg flowchart-label" id="flowchart-ConfigFile-12" data-node="true" data-id="ConfigFile" transform="translate(1356.38671875, 272)"><rect class="basic label-container" style="" rx="0" ry="0" x="-159.046875" y="-26.5" width="318.09375" height="53"/><g class="label" style="" transform="translate(-151.546875, -19)"><rect/><foreignObject width="303.09375" height="38"><div xmlns="http://www.w3.org/1999/xhtml" style="display: inline-block; white-space: nowrap;"><span class="nodeLabel">application-main.yml<br />+ env vars (DB, admin, queue threshold)</span></div></foreignObject></g></g><g class="node default infra flowchart-label" id="flowchart-BootRunner-13" data-node="true" data-id="BootRunner" transform="translate(1497.296875, 452)"><rect class="basic label-container" style="" rx="0" ry="0" x="-192.5546875" y="-17" width="385.109375" height="34"/><g class="label" style="" transform="translate(-185.0546875, -9.5)"><rect/><foreignObject width="370.109375" height="19"><div xmlns="http://www.w3.org/1999/xhtml" style="display: inline-block; white-space: nowrap;"><span class="nodeLabel">AdminBootstrap (CommandLineRunner @Order 0)</span></div></foreignObject></g></g><g class="node default infra flowchart-label" id="flowchart-InitRunner-14" data-node="true" data-id="InitRunner" transform="translate(2022.37890625, 67)"><rect class="basic label-container" style="" rx="0" ry="0" x="-196.1328125" y="-17" width="392.265625" height="34"/><g class="label" style="" transform="translate(-188.6328125, -9.5)"><rect/><foreignObject width="377.265625" height="19"><div xmlns="http://www.w3.org/1999/xhtml" style="display: inline-block; white-space: nowrap;"><span class="nodeLabel">InitFileRunner (CommandLineRunner @Order 100)</span></div></foreignObject></g></g><g class="node default infra flowchart-label" id="flowchart-StateParser-15" data-node="true" data-id="StateParser" transform="translate(1935.734375, 272)"><rect class="basic label-container" style="" rx="0" ry="0" x="-64.265625" y="-17" width="128.53125" height="34"/><g class="label" style="" transform="translate(-56.765625, -9.5)"><rect/><foreignObject width="113.53125" height="19"><div xmlns="http://www.w3.org/1999/xhtml" style="display: inline-block; white-space: nowrap;"><span class="nodeLabel">StateFileParser</span></div></foreignObject></g></g><g class="node default infra flowchart-label" id="flowchart-InitProc-16" data-node="true" data-id="InitProc" transform="translate(1935.734375, 452)"><rect class="basic label-container" style="" rx="0" ry="0" x="-195.8828125" y="-17" width="391.765625" height="34"/><g class="label" style="" transform="translate(-188.3828125, -9.5)"><rect/><foreignObject width="376.765625" height="19"><div xmlns="http://www.w3.org/1999/xhtml" style="display: inline-block; white-space: nowrap;"><span class="nodeLabel">InitFileProcessor (@Transactional — all-or-nothing)</span></div></foreignObject></g></g><g class="node default cfg flowchart-label" id="flowchart-StateFile-17" data-node="true" data-id="StateFile" transform="translate(2163.203125, 272)"><rect class="basic label-container" style="" rx="0" ry="0" x="-113.203125" y="-17" width="226.40625" height="34"/><g class="label" style="" transform="translate(-105.703125, -9.5)"><rect/><foreignObject width="211.40625" height="19"><div xmlns="http://www.w3.org/1999/xhtml" style="display: inline-block; white-space: nowrap;"><span class="nodeLabel">initial-state file (commands)</span></div></foreignObject></g></g><g class="node default domain flowchart-label" id="flowchart-Aggregates-9" data-node="true" data-id="Aggregates" transform="translate(207.4453125, 799.5)"><rect class="basic label-container" style="" rx="0" ry="0" x="-172.4453125" y="-45.5" width="344.890625" height="91"/><g class="label" style="" transform="translate(-164.9453125, -38)"><rect/><foreignObject width="329.890625" height="76"><div xmlns="http://www.w3.org/1999/xhtml" style="display: inline-block; white-space: nowrap;"><span class="nodeLabel">JPA-annotated aggregates<br />(Member, ProductionCompany, Event, Zone,<br />Venue, ActiveOrder, Lottery, VirtualQueue,<br />PurchaseRecord, Platform, Policies)</span></div></foreignObject></g></g><g class="node default domain flowchart-label" id="flowchart-RepoPorts-10" data-node="true" data-id="RepoPorts" transform="translate(596.6015625, 799.5)"><rect class="basic label-container" style="" rx="0" ry="0" x="-166.7109375" y="-26.5" width="333.421875" height="53"/><g class="label" style="" transform="translate(-159.2109375, -19)"><rect/><foreignObject width="318.421875" height="38"><div xmlns="http://www.w3.org/1999/xhtml" style="display: inline-block; white-space: nowrap;"><span class="nodeLabel">Repository ports<br />(IMemberRepository, IEventRepository, ...)</span></div></foreignObject></g></g><g class="node default app flowchart-label" id="flowchart-Services-7" data-node="true" data-id="Services" transform="translate(2687.609375, 624)"><rect class="basic label-container" style="" rx="0" ry="0" x="-146.796875" y="-36" width="293.59375" height="72"/><g class="label" style="" transform="translate(-139.296875, -28.5)"><rect/><foreignObject width="278.59375" height="57"><div xmlns="http://www.w3.org/1999/xhtml" style="display: inline-block; white-space: nowrap;"><span class="nodeLabel">Domain-use-case Services<br />(Member, Company, Event, Order,<br />Checkout, Lottery, Policy, Admin, ...)</span></div></foreignObject></g></g><g class="node default app flowchart-label" id="flowchart-Ports-8" data-node="true" data-id="Ports" transform="translate(2697.609375, 799.5)"><rect class="basic label-container" style="" rx="0" ry="0" x="-198.078125" y="-36" width="396.15625" height="72"/><g class="label" style="" transform="translate(-190.578125, -28.5)"><rect/><foreignObject width="381.15625" height="57"><div xmlns="http://www.w3.org/1999/xhtml" style="display: inline-block; white-space: nowrap;"><span class="nodeLabel">Ports<br />(IPaymentGatewayPort, ITicketIssuancePort,<br />INotificationPort, IExternalSystemsAvailabilityPort)</span></div></foreignObject></g></g><g class="root" transform="translate(2431.78515625, 170)"><g class="clusters"><g class="cluster default flowchart-label" id="COMM"><rect style="" rx="0" ry="0" x="8" y="8" width="753.90625" height="188"/><g class="cluster-label" transform="translate(311.4140625, 8)"><foreignObject width="147.078125" height="21"><div xmlns="http://www.w3.org/1999/xhtml" style="display: inline-block; white-space: nowrap;"><span class="nodeLabel">🟧 COMMUNICATION</span></div></foreignObject></g></g></g><g class="edgePaths"><path d="M293.734,60L301.801,60C309.867,60,326,60,350.339,60C374.679,60,407.224,60,423.497,60L439.77,60" id="L-AuthIntc-REST-0" class="edge-thickness-normal edge-pattern-dotted flowchart-link LS-AuthIntc LE-REST" style="fill:none;stroke-width:2px;stroke-dasharray:3;" marker-end="url(#my-svg_flowchart-pointEnd)"/></g><g class="edgeLabels"><g class="edgeLabel" transform="translate(342.1328125, 60)"><g class="label" transform="translate(-23.3984375, -9.5)"><foreignObject width="46.796875" height="19"><div xmlns="http://www.w3.org/1999/xhtml" style="display: inline-block; white-space: nowrap;"><span class="edgeLabel">guards</span></div></foreignObject></g></g></g><g class="nodes"><g class="node default comm flowchart-label" id="flowchart-REST-4" data-node="true" data-id="REST" transform="translate(563.71875, 60)"><rect class="basic label-container" style="" rx="0" ry="0" x="-118.6484375" y="-17" width="237.296875" height="34"/><g class="label" style="" transform="translate(-111.1484375, -9.5)"><rect/><foreignObject width="222.296875" height="19"><div xmlns="http://www.w3.org/1999/xhtml" style="display: inline-block; white-space: nowrap;"><span class="nodeLabel">REST controllers (Spring MVC)</span></div></foreignObject></g></g><g class="node default comm flowchart-label" id="flowchart-AuthIntc-6" data-node="true" data-id="AuthIntc" transform="translate(163.3671875, 60)"><rect class="basic label-container" style="" rx="0" ry="0" x="-130.3671875" y="-17" width="260.734375" height="34"/><g class="label" style="" transform="translate(-122.8671875, -9.5)"><rect/><foreignObject width="245.734375" height="19"><div xmlns="http://www.w3.org/1999/xhtml" style="display: inline-block; white-space: nowrap;"><span class="nodeLabel">AuthenticationInterceptor (JWT)</span></div></foreignObject></g></g><g class="node default comm flowchart-label" id="flowchart-WS-5" data-node="true" data-id="WS" transform="translate(563.71875, 144)"><rect class="basic label-container" style="" rx="0" ry="0" x="-173.1875" y="-17" width="346.375" height="34"/><g class="label" style="" transform="translate(-165.6875, -9.5)"><rect/><foreignObject width="331.375" height="19"><div xmlns="http://www.w3.org/1999/xhtml" style="display: inline-block; white-space: nowrap;"><span class="nodeLabel">WebSocket / STOMP (real-time notifications)</span></div></foreignObject></g></g></g></g><g class="node default client flowchart-label" id="flowchart-UI-2" data-node="true" data-id="UI" transform="translate(2816.23828125, 67)"><rect class="basic label-container" style="" rx="0" ry="0" x="-115.0078125" y="-17" width="230.015625" height="34"/><g class="label" style="" transform="translate(-107.5078125, -9.5)"><rect/><foreignObject width="215.015625" height="19"><div xmlns="http://www.w3.org/1999/xhtml" style="display: inline-block; white-space: nowrap;"><span class="nodeLabel">event-system-ui (React/Vite)</span></div></foreignObject></g></g><g class="node default client flowchart-label" id="flowchart-CLImport-3" data-node="true" data-id="CLImport" transform="translate(2581.65234375, 67)"><rect class="basic label-container" style="" rx="0" ry="0" x="-69.578125" y="-17" width="139.15625" height="34"/><g class="label" style="" transform="translate(-62.078125, -9.5)"><rect/><foreignObject width="124.15625" height="19"><div xmlns="http://www.w3.org/1999/xhtml" style="display: inline-block; white-space: nowrap;"><span class="nodeLabel">Init scripts / curl</span></div></foreignObject></g></g><g class="node default default flowchart-label" id="flowchart-%%-0" data-node="true" data-id="%%" transform="translate(2424.97265625, 67)"><rect class="basic label-container" style="" rx="0" ry="0" x="-17.1015625" y="-17" width="34.203125" height="34"/><g class="label" style="" transform="translate(-9.6015625, -9.5)"><rect/><foreignObject width="19.203125" height="19"><div xmlns="http://www.w3.org/1999/xhtml" style="display: inline-block; white-space: nowrap;"><span class="nodeLabel">%%</span></div></foreignObject></g></g><g class="node default ext flowchart-label" id="flowchart-WSEP-26" data-node="true" data-id="WSEP" transform="translate(1869.2109375, 1271.5)"><rect class="basic label-container" style="" rx="0" ry="0" x="-111.3359375" y="-26.5" width="222.671875" height="53"/><g class="label" style="" transform="translate(-103.8359375, -19)"><rect/><foreignObject width="207.671875" height="38"><div xmlns="http://www.w3.org/1999/xhtml" style="display: inline-block; white-space: nowrap;"><span class="nodeLabel">WSEP external service<br />(payment + ticket issuance)</span></div></foreignObject></g></g></g></g></g></svg>